<svg width="32" height="32" viewBox="0 0 32 32" fill="none" xmlns="http://www.w3.org/2000/svg">
<path d="M30.661 1.29745C29.7904 0.464697 28.6328 0 27.4289 0C26.225 0 25.0674 0.464697 24.1969 1.29745L2.34292 23.1788C1.59752 23.9208 1.00661 24.8036 0.604434 25.7761C0.202261 26.7485 -0.003173 27.7911 3.70459e-05 28.8437V32H3.14979C4.20087 32.0032 5.24213 31.7975 6.21323 31.3947C7.18433 30.992 8.06595 30.4003 8.807 29.6539L30.661 7.77144C31.0855 7.34636 31.4222 6.84171 31.652 6.2863C31.8817 5.7309 32 5.13562 32 4.53445C32 3.93328 31.8817 3.33799 31.652 2.78259C31.4222 2.22718 31.0855 1.72253 30.661 1.29745ZM10.183 18.5645L13.4162 21.802L10.991 24.2293L7.75898 20.9929L10.183 18.5645ZM7.18983 28.0357C6.66037 28.5684 6.03072 28.9907 5.33727 29.2783C4.64383 29.5659 3.90034 29.713 3.14979 29.7111H2.28578V28.8425C2.28391 28.0909 2.43082 27.3464 2.718 26.6521C3.00519 25.9577 3.42696 25.3272 3.95894 24.797L6.14182 22.6111L9.375 25.8476L7.18983 28.0357ZM29.0461 6.15208L15.0334 20.1827L11.8002 16.9463L25.814 2.91566C26.2493 2.49929 26.8281 2.26694 27.4301 2.26694C28.032 2.26694 28.6108 2.49929 29.0461 2.91566C29.4746 3.34488 29.7153 3.92696 29.7153 4.53387C29.7153 5.14079 29.4746 5.72286 29.0461 6.15208Z" fill="white"/>
</svg>
