<svg width="30" height="29" viewBox="0 0 30 29" fill="none" xmlns="http://www.w3.org/2000/svg">
<path d="M28.7447 1.17582C27.9285 0.421132 26.8433 0 25.7146 0C24.5859 0 23.5007 0.421132 22.6846 1.17582L2.19649 21.0058C1.49767 21.6782 0.943693 22.4783 0.566657 23.3596C0.18962 24.2408 -0.00297469 25.1857 3.47306e-05 26.1396V29H2.95293C3.93831 29.0029 4.9145 28.8165 5.8249 28.4515C6.73531 28.0865 7.56183 27.5503 8.25656 26.8738L28.7447 7.04287C29.1426 6.65764 29.4584 6.2003 29.6737 5.69696C29.8891 5.19363 30 4.65415 30 4.10934C30 3.56453 29.8891 3.02506 29.6737 2.52172C29.4584 2.01838 29.1426 1.56105 28.7447 1.17582ZM9.54657 16.824L12.5777 19.7581L10.3041 21.9578L7.27405 19.0248L9.54657 16.824ZM6.74047 25.4073C6.24409 25.8901 5.6538 26.2729 5.00369 26.5335C4.35359 26.7941 3.65657 26.9274 2.95293 26.9257H2.14292V26.1385C2.14117 25.4574 2.27889 24.7827 2.54813 24.1534C2.81736 23.5241 3.21277 22.9527 3.71151 22.4723L5.75796 20.4913L8.78906 23.4244L6.74047 25.4073ZM27.2307 5.57533L14.0938 18.2906L11.0627 15.3575L24.2007 2.64232C24.6087 2.26498 25.1514 2.05441 25.7157 2.05441C26.28 2.05441 26.8226 2.26498 27.2307 2.64232C27.6324 3.0313 27.8581 3.5588 27.8581 4.10882C27.8581 4.65884 27.6324 5.18635 27.2307 5.57533Z" fill="white"/>
</svg>
