<svg width="39" height="39" viewBox="0 0 39 39" fill="none" xmlns="http://www.w3.org/2000/svg">
<g clip-path="url(#clip0_183_253)">
<path d="M26.7127 30.9592C27.1616 30.6741 27.2973 30.0803 27.0142 29.6289C26.7312 29.1774 26.1349 29.0428 25.6841 29.3253C20.6032 32.5273 13.8111 31.2504 10.223 26.4164C6.41433 21.2853 7.48385 14.0165 12.6071 10.2137C17.7303 6.41094 24.9955 7.48913 28.8042 12.6203C30.7939 15.3009 31.5092 18.6429 30.8492 21.847L29.1607 19.5722C28.8422 19.1431 28.2392 19.0534 27.8108 19.3714C27.3824 19.6895 27.2936 20.2926 27.6121 20.7217L31.0659 25.3746L35.7116 21.9263C36.1401 21.6082 36.2288 21.0051 35.9103 20.576C35.5918 20.1469 34.9888 20.0572 34.5604 20.3753L32.8492 21.6454C33.4187 18.0875 32.5516 14.4332 30.3528 11.4709C25.909 5.48404 17.4315 4.22324 11.4539 8.66017C5.47638 13.0971 4.22872 21.5765 8.67252 27.5633C12.8592 33.2037 20.7832 34.695 26.7127 30.9592Z" fill="white"/>
</g>
<defs>
<clipPath id="clip0_183_253">
<rect width="27" height="27" fill="white" transform="translate(38.3864 22.2939) rotate(143.415)"/>
</clipPath>
</defs>
</svg>
