<svg width="26" height="22" viewBox="0 0 26 22" xmlns="http://www.w3.org/2000/svg">
<g clip-path="url(#clip0_215_2)">
<path d="M25.38 8.50999L17.45 0.589991C17.2643 0.404038 17.0437 0.25652 16.8009 0.155872C16.5581 0.055223 16.2979 0.00341797 16.035 0.00341797C15.7722 0.00341797 15.5119 0.055223 15.2691 0.155872C15.0263 0.25652 14.8058 0.404038 14.62 0.589991L0.62002 14.59C0.434067 14.7757 0.28655 14.9963 0.185901 15.2391C0.0852526 15.4819 0.0334473 15.7422 0.0334473 16.005C0.0334473 16.2678 0.0852526 16.5281 0.185901 16.7709C0.28655 17.0137 0.434067 17.2342 0.62002 17.42L5.13002 22H14.72L25.38 11.34C25.566 11.1542 25.7135 10.9337 25.8141 10.6909C25.9148 10.4481 25.9666 10.1878 25.9666 9.92499C25.9666 9.66216 25.9148 9.40191 25.8141 9.15911C25.7135 8.91631 25.566 8.69574 25.38 8.50999ZM13.89 20H6.00002L2.00002 16L8.31002 9.68999L16.24 17.61L13.89 20ZM17.65 16.24L9.73002 8.30999L16 1.99999L24 9.92999L17.65 16.24Z" fill="white"/>
</g>
<defs>
<clipPath id="clip0_215_2">
<rect width="26" height="22" fill="white"/>
</clipPath>
</defs>
</svg>
