<svg viewBox="0 0 32 32" fill="none" xmlns="http://www.w3.org/2000/svg">
<path d="M6.99999 27H30V29H6.99999V27ZM27.38 10.51L19.45 2.58999C19.2642 2.40404 19.0437 2.25652 18.8009 2.15587C18.5581 2.05522 18.2978 2.00342 18.035 2.00342C17.7722 2.00342 17.5119 2.05522 17.2691 2.15587C17.0263 2.25652 16.8057 2.40404 16.62 2.58999L2.61999 16.59C2.43404 16.7757 2.28652 16.9963 2.18587 17.2391C2.08522 17.4819 2.03342 17.7422 2.03342 18.005C2.03342 18.2678 2.08522 18.5281 2.18587 18.7709C2.28652 19.0137 2.43404 19.2342 2.61999 19.42L7.12999 24H16.72L27.38 13.34C27.5659 13.1542 27.7135 12.9337 27.8141 12.6909C27.9148 12.4481 27.9666 12.1878 27.9666 11.925C27.9666 11.6622 27.9148 11.4019 27.8141 11.1591C27.7135 10.9163 27.5659 10.6957 27.38 10.51ZM15.89 22H7.99999L3.99999 18L10.31 11.69L18.24 19.61L15.89 22ZM19.65 18.24L11.73 10.31L18 3.99999L26 11.93L19.65 18.24Z"/>
</svg>
