<svg width="412" height="276" viewBox="0 0 412 276" fill="none" xmlns="http://www.w3.org/2000/svg">
<g clip-path="url(#clip0_182_168)">
<path d="M402.65 2.60005C402.65 1.36005 401.51 0.670048 400.38 0.870048C374.39 5.68005 347.64 0.240048 321.51 0.0100479C295.98 -0.209952 270.41 2.36005 244.99 4.40005C192.91 8.59005 140.91 13.87 89.0099 19.92C60.1999 23.28 31.4199 26.9 2.66992 30.77C1.93992 27.43 1.19992 24.09 0.419917 20.76C0.349917 20.48 -0.0500834 20.6 -8.34106e-05 20.88C0.529917 24.23 1.07992 27.58 1.61992 30.92C-0.760084 31.42 -0.160084 35.75 2.35992 35.43C6.92992 62.9601 11.9399 90.42 16.0799 118.02C21.0799 151.33 25.2399 184.74 28.9499 218.21C31.0099 236.79 32.8399 255.4 34.4599 274.03C34.5199 274.68 34.9599 275.2 35.6399 275.21C84.4999 276.13 132.92 271.64 181.37 265.75C229.75 259.87 278.15 253.15 326.91 251.45C340.35 250.98 353.8 250.9 367.24 251.28C381.2 251.68 395.15 252.53 408.6 256.54C409.72 256.87 411.09 255.94 411 254.71C404.85 170.81 402.57 86.7101 402.64 2.59005L402.65 2.60005ZM339.4 247.08C314.74 247.49 290.13 249.31 265.6 251.79C216.69 256.73 168.08 264.15 119.15 268.96C91.7699 271.65 64.2499 273.45 36.7299 272.88C31.2399 207.13 22.7399 141.7 11.4299 76.7C9.01992 62.85 6.51992 49.0201 3.61992 35.2701C55.6499 28.3601 107.78 22.29 160.01 17.11C185.68 14.57 211.37 12.29 237.07 10.1C263.18 7.87005 289.42 5.17005 315.64 4.83005C343.58 4.47005 371.29 9.09005 399.05 4.71005C398.44 87.2601 401.59 169.81 407.04 252.17C385.35 246.14 361.67 246.72 339.39 247.08H339.4Z" fill="#ADBFFD"/>
<path d="M88.8898 106.44C91.2798 108.23 93.7398 109.92 96.3198 111.43C98.8898 112.94 101.53 114.32 104.23 115.58C106.92 116.84 109.84 118.35 112.74 119.03C114.68 119.49 116.15 116.56 114.16 115.65C111.53 114.44 108.67 113.68 106 112.54C103.26 111.37 100.57 110.06 97.9498 108.64C95.3998 107.25 92.8698 105.81 90.4198 104.24C87.9398 102.65 85.5998 100.74 83.0298 99.3201C82.2298 98.8801 81.5798 99.8701 82.1098 100.52C83.9798 102.82 86.5398 104.67 88.8998 106.44H88.8898Z" fill="#ADBFFD"/>
<path d="M99.9399 118.06C99.9199 117.9 99.8699 117.75 99.7899 117.6C99.5499 117.12 98.9499 116.96 98.4699 117.06C98.0199 117.15 97.6099 117.41 97.2799 117.75C97.2499 117.69 97.2199 117.63 97.1899 117.56C97.1599 117.5 97.1599 117.49 97.1799 117.53C97.1599 117.49 97.1499 117.46 97.1399 117.42C97.0799 117.28 97.0399 117.13 96.9899 116.98C96.9199 116.74 96.6799 116.58 96.4299 116.62C96.1999 116.65 95.9599 116.86 95.9899 117.12C96.0699 117.8 96.2799 118.45 96.5899 119.05C96.5899 119.08 96.5699 119.1 96.5699 119.13C96.4799 119.63 96.4599 120.14 96.6299 120.63C96.6899 120.79 96.7499 120.95 96.8299 121.1C96.9599 121.34 97.1499 121.5 97.3699 121.66C97.7299 121.93 98.1099 121.95 98.5399 121.88C98.7699 121.84 99.0599 121.6 99.1699 121.4C99.2799 121.19 99.2999 120.99 99.2799 120.77C99.2799 120.77 99.2799 120.77 99.2899 120.76C99.2899 120.79 99.2899 120.82 99.2999 120.85C99.2999 120.82 99.2999 120.79 99.2999 120.75C100.01 120.1 100.25 118.98 99.9399 118.07V118.06Z" fill="#ADBFFD"/>
<path d="M131.13 117.14C131.53 117.56 132.25 117.35 132.4 116.8C132.67 115.84 132.75 114.81 132.6 113.82C132.53 113.38 132.42 112.95 132.26 112.53C132.16 112.27 132.05 112.02 131.93 111.77C131.87 111.66 131.82 111.55 131.75 111.45C131.72 111.39 131.54 111.05 131.65 111.33C131.44 110.75 130.83 110.29 130.18 110.5C129.5 110.72 129.25 111.3 129.35 111.97C129.4 112.3 129.41 112.68 129.57 112.97C129.13 112.25 128.75 111.49 128.47 110.68C128.29 110.16 127.51 110.37 127.64 110.91C128.22 113.25 129.45 115.4 131.12 117.14H131.13ZM129.9 113.38C130 113.49 130.06 113.63 130.17 113.73C130.28 113.83 130.43 113.89 130.58 113.89C130.6 113.95 130.63 114.02 130.64 114.03C130.67 114.12 130.7 114.2 130.73 114.29C130.77 114.43 130.81 114.57 130.84 114.71C130.38 114.18 129.97 113.61 129.61 113.01C129.69 113.15 129.81 113.26 129.91 113.37L129.9 113.38Z" fill="#ADBFFD"/>
<path d="M145.67 111.48C146.04 114.31 146.43 116.91 145.79 119.75C145.2 122.38 144.07 124.88 142.58 127.11C139.41 131.86 134.56 135.24 129.61 137.91C124.23 140.81 118.18 143.34 111.95 142.37C106.28 141.49 100.84 138.59 96.2402 135.26C91.1002 131.54 86.6102 127.17 83.1802 121.81C82.9202 121.41 82.3202 121.76 82.5402 122.18C85.2802 127.45 89.0002 132.62 93.5902 136.42C98.3202 140.34 103.97 143.82 110.02 145.17C116.82 146.68 123.5 144.74 129.58 141.67C135.21 138.82 140.61 135.16 144.45 130.08C146.49 127.38 147.98 124.28 148.67 120.96C149.34 117.73 149.49 113.87 147.97 110.86C147.44 109.82 145.52 110.26 145.68 111.48H145.67Z" fill="#ADBFFD"/>
<path d="M75.83 137.23C70.91 136.19 66.0399 135.45 61.0499 134.95C58.5799 134.7 56.0999 134.53 53.6199 134.39C51.0899 134.24 48.4699 133.95 45.9399 134.09C45.1499 134.13 44.61 134.51 44.31 135.01C42.3 133.64 39.45 133.31 37.16 134.13C35.96 134.56 34.7199 135.33 33.9199 136.33C33.6899 136.62 33.51 136.95 33.32 137.27C33.11 137.62 33.07 137.93 32.99 138.31C32.89 138.78 32.68 139.42 32.77 140.02C32.84 140.47 33.47 140.57 33.75 140.28C34.05 139.97 34.2999 139.48 34.5999 139.23C35.1199 138.8 35.44 138.51 35.86 138.17C36.07 138 36.27 137.83 36.47 137.66C36.54 137.6 36.5999 137.55 36.6699 137.49C36.6899 137.47 36.8399 137.36 36.8699 137.34C37.3099 137.03 37.7799 136.8 38.2599 136.56C38.7799 136.3 38.96 136.2 39.48 136.03C39.91 135.89 40.4 135.78 40.82 135.74C41.85 135.64 42.86 135.78 43.82 136.18C43.91 136.22 43.99 136.23 44.07 136.23C44.13 136.81 44.43 137.37 44.97 137.71C42.91 138.55 40.91 139.64 39.8 141.59C38.49 143.89 38.7699 147.6 41.5499 148.63C42.1099 148.84 42.63 148.11 42.32 147.63C42.09 147.27 41.88 146.85 41.72 146.46C41.57 146.08 41.58 145.63 41.59 145.18C41.61 144.22 41.78 143.33 42.2 142.51C43.27 140.44 45.25 139.2 47.22 138.12C49.27 138.21 51.3499 138.14 53.3899 138.19C55.8699 138.25 58.34 138.35 60.82 138.43C65.76 138.59 70.6899 138.75 75.6299 138.86C76.5399 138.88 76.7699 137.44 75.8499 137.25L75.83 137.23Z" fill="#ADBFFD"/>
<path d="M176.34 90.6499C174.16 90.8599 172.04 92.2099 170.25 93.3999C168.42 94.6099 166.67 95.9499 165.01 97.3699C163.36 98.7799 161.85 100.32 160.43 101.96C159.05 103.56 157.54 105.23 156.84 107.26C156.68 107.73 157.29 108.21 157.7 107.92C159.39 106.76 160.69 105.11 162.18 103.71C163.68 102.3 165.27 100.97 166.89 99.6999C168.49 98.4499 170.18 97.3199 171.92 96.2599C173.66 95.1999 175.81 94.2899 177.23 92.7999C177.92 92.0799 177.48 90.5499 176.34 90.6599V90.6499Z" fill="#ADBFFD"/>
<path d="M87.7598 190.91C87.8098 191.47 88.5898 191.79 88.8898 191.22C90.3198 188.53 90.9398 185.43 91.6798 182.49C92.4498 179.43 93.3198 176.4 94.2798 173.39C96.2298 167.32 98.5298 161.31 101.06 155.46C101.34 154.81 100.44 154.23 100.08 154.89C96.9898 160.52 94.3998 166.31 92.2298 172.35C91.1598 175.32 90.1898 178.33 89.3198 181.36C88.4398 184.41 87.4998 187.7 87.7598 190.91Z" fill="#ADBFFD"/>
<path d="M161.99 162.13C161.13 161.39 160.23 160.7 159.37 159.97C157.68 158.54 155.98 157.14 154.34 155.65C151.43 153.02 148.63 150.24 145.96 147.37C148.35 144.9 150.34 142.01 151.93 138.98C156.53 130.23 158.29 120.07 156.85 110.28C155.91 103.89 153.43 97.7501 149.72 92.4701C151.21 91.4001 151.18 88.8101 151.29 87.0901C151.44 84.8401 151.25 82.5701 150.89 80.3501C150.13 75.7301 148.28 71.3301 145.93 67.3001C143.67 63.4201 140.9 59.9101 138.11 56.4001C137.19 55.2501 136.29 54.0701 135.44 52.8501C134.91 49.8501 133.64 47.0101 131.5 44.6901C130.58 43.6901 129.14 44.7601 129.37 45.9301C130 49.1401 131.52 51.9801 133.34 54.6401C133.59 57.0001 133.34 59.4301 132.7 61.6701C131.14 67.1001 127.51 71.8101 123.73 75.9701C122.77 75.7901 121.8 75.6401 120.82 75.5201C110.94 74.3101 100.72 75.8901 91.2002 78.5601C84.7202 80.3801 78.1302 83.2601 73.3302 88.0201C72.2802 87.4401 71.3102 86.7201 70.5102 85.7701C68.6602 83.5901 67.7302 80.7601 66.9802 78.0501C65.6502 73.2301 64.8002 67.2701 68.1902 63.0701C68.9502 62.1301 67.7102 60.8101 66.8402 61.7201C61.6902 67.0401 57.5302 73.2401 55.5802 80.4601C53.8002 87.0501 54.1202 94.1001 57.1502 100.28C58.7502 103.56 61.2402 106.34 64.2202 108.42C64.5502 108.65 64.9402 108.13 64.6502 107.87C58.7302 102.56 56.1202 94.0501 56.7702 86.2501C57.3202 79.7101 60.1902 73.5301 64.0502 68.1701C63.4902 71.7401 64.0802 75.5701 64.9802 79.0401C65.7902 82.1601 66.9202 85.3001 69.0702 87.7701C69.7802 88.5901 70.6402 89.3601 71.5902 89.9601C70.5702 91.2101 69.6602 92.5501 68.8902 94.0301C67.8902 95.9601 67.1702 98.0301 66.8202 100.18C66.7802 100.43 66.7902 100.66 66.8302 100.88C65.4702 104.95 65.1402 109.41 65.7602 113.71C67.1302 123.26 72.3502 132.31 78.4802 139.61C84.6902 147 92.7602 151.96 102.14 154.22C106.83 155.35 111.66 155.88 116.48 156.08C121.41 156.28 126.4 156.24 131.25 155.28C135.86 154.37 140.13 152.46 143.75 149.44C144.2 149.07 144.63 148.68 145.05 148.28C147.39 151.46 149.89 154.5 152.62 157.37C154.14 158.97 155.68 160.55 157.33 162.01C158.18 162.76 159.02 163.51 159.91 164.21C160.84 164.95 161.73 165.63 162.97 165.45C163.33 165.4 163.68 164.93 163.64 164.56C163.53 163.45 162.81 162.8 162 162.1L161.99 162.13ZM135 61.5701C135.33 60.3401 135.54 59.0901 135.65 57.8201C138.01 60.9101 140.41 63.9601 142.44 67.2901C144.77 71.1201 146.64 75.2201 147.54 79.6301C148 81.8601 148.16 84.1401 148.02 86.4201C147.95 87.5201 147.76 88.5801 147.56 89.6601C146.76 88.7101 145.93 87.7901 145.05 86.9201C139.51 81.4201 132.66 77.9301 125.17 76.2801C129.5 72.1501 133.42 67.4601 135 61.5601V61.5701ZM136.63 150.61C132.41 152.55 127.71 153.12 123.12 153.3C118.63 153.47 114.09 153.34 109.62 152.84C100.71 151.84 92.0202 148.97 85.1602 143.04C81.8202 140.15 78.9302 136.76 76.4202 133.14C73.8002 129.36 71.4202 125.32 69.7102 121.03C67.3202 115.02 66.3802 108.41 67.7802 102.18C68.7402 102.73 70.0802 102.53 70.3002 101.15C70.9302 97.2301 72.8102 93.9001 75.3902 91.1601C75.9502 91.1501 76.5202 91.0501 77.0902 90.8401C77.7002 90.6201 77.7402 89.7601 77.0902 89.5601C77.0802 89.5601 77.0602 89.5601 77.0502 89.5501C79.8202 87.1201 83.1502 85.2301 86.5602 83.9001C90.8102 82.2401 95.2802 81.1401 99.7502 80.2401C104.29 79.3301 108.88 78.6701 113.52 78.5601C121.92 78.3501 130.37 80.0001 137.48 84.5901C136.67 85.0701 136.1 86.0801 135.55 86.7901C134.64 87.9601 133.73 89.1301 132.86 90.3401C131.03 92.8801 129.29 95.4901 127.62 98.1401C125.99 100.73 124.41 103.35 123 106.07C122.23 107.54 120.64 110.18 122.71 111.36C123.29 111.69 123.96 110.89 123.44 110.41C122.63 109.66 123.92 108.05 124.33 107.39C125.02 106.29 125.72 105.19 126.41 104.09C127.83 101.82 129.3 99.5801 130.83 97.3801C132.32 95.2401 133.87 93.1601 135.45 91.0801C136.26 90.0101 137.07 88.9401 137.91 87.8801C138.43 87.2301 139.06 86.6201 139.26 85.8601C145.35 90.3701 149.96 96.9001 152.37 104.06C155.33 112.86 155.04 122.52 152.1 131.28C149.44 139.2 144.45 147.03 136.63 150.63V150.61Z" fill="#ADBFFD"/>
<path d="M176.13 89C176.4 89.59 177.25 89.15 177.13 88.58C176.87 87.31 176.9 85.86 177.18 84.6C177.47 83.28 178.09 82.04 179.04 81.07C179.94 80.14 181.09 79.48 182.33 79.13C182.95 78.95 183.58 78.87 184.22 78.83C184.93 78.78 185.55 78.65 186.24 78.48C186.62 78.39 186.6 77.93 186.34 77.73C185.63 77.2 184.95 76.97 184.06 76.98C183.29 76.99 182.5 77.15 181.77 77.38C180.23 77.86 178.78 78.74 177.69 79.95C176.61 81.15 175.86 82.65 175.55 84.24C175.39 85.04 175.29 85.89 175.42 86.71C175.54 87.51 175.8 88.28 176.13 89.01V89Z" fill="#ADBFFD"/>
<path d="M190.33 81.7201C189.65 81.6901 188.98 81.7401 188.31 81.8401C186.95 82.0301 185.61 82.5401 184.41 83.1901C182 84.5001 180.16 86.5401 179.22 89.1201C179.1 89.4501 179.62 89.6701 179.79 89.3601C180.97 87.2101 182.92 85.4701 185.14 84.4401C186.21 83.9401 187.37 83.6501 188.53 83.4901C189.13 83.4101 189.73 83.3801 190.33 83.4001C191.07 83.4301 191.37 83.3601 192.01 83.1901C192.43 83.0801 192.44 82.5601 192.12 82.3301C191.54 81.9101 191.13 81.7501 190.32 81.7201H190.33Z" fill="#ADBFFD"/>
<path d="M185.66 89.8599C183.29 89.2599 180.6 89.6999 178.87 91.5199C178.67 91.7299 178.94 92.1399 179.2 91.9499C180.89 90.6799 183.16 90.5899 185.07 91.4199C186.01 91.8299 186.89 92.3299 187.59 93.0799C188.29 93.8299 188.61 94.9499 189.42 95.5599C189.65 95.7399 190.07 95.6099 190.19 95.3599C190.8 94.1399 189.79 92.6599 188.94 91.7999C188.05 90.8999 186.88 90.1699 185.65 89.8599H185.66Z" fill="#ADBFFD"/>
<path d="M33.9702 129.41C33.9702 129.41 34.0802 129.28 34.1302 129.21C34.2902 129.12 34.5602 128.94 34.6002 128.92C34.9302 128.73 35.5102 128.6 35.8902 128.58C37.4702 128.47 39.1702 128.55 40.7302 128.83C43.4402 129.31 46.3502 130.81 47.1302 133.66C47.2702 134.18 48.1202 134.09 48.0902 133.53C47.8802 129.46 44.1202 127.1 40.4702 126.39C39.3502 126.17 38.2102 126.05 37.0802 125.96C36.1602 125.89 35.2102 125.79 34.3202 126.1C33.4802 126.39 32.5402 126.9 32.3102 127.84C32.1402 128.54 32.3602 129.46 33.2002 129.74C33.5102 129.84 33.8002 129.66 33.9702 129.43V129.41Z" fill="#ADBFFD"/>
<path d="M148.35 198.28C145.26 196.56 141.51 196.02 138.04 195.66C134.06 195.25 130.05 195.37 126.08 195.82C117.95 196.75 110.06 199.02 102.21 201.25C98.2302 202.38 94.2502 203.52 90.2202 204.49C86.5502 205.38 82.8202 206.23 79.0402 206.39C75.7802 206.53 72.3102 206.15 69.4502 204.47C66.0702 202.48 64.4002 198.87 63.9602 195.08C63.0602 187.35 65.8202 179.47 69.9502 173.03C74.2902 166.24 80.4202 160.95 86.8102 156.15C88.3702 154.98 89.9502 153.85 91.5502 152.74C91.8202 152.56 91.5802 152.13 91.2902 152.3C78.7202 160.02 66.1002 170.71 63.1702 185.95C61.9602 192.25 62.1102 200.46 67.7602 204.67C72.7802 208.41 79.8502 207.73 85.6202 206.62C101.6 203.53 117.1 196.47 133.61 196.74C140.08 196.85 151.45 197.66 151.72 206.29C151.96 213.89 144.18 218.98 138.18 221.96C125.16 228.42 109.92 228.32 95.8902 225.9C94.5002 225.66 93.1202 225.39 91.7402 225.1C92.5402 223.25 91.7202 220.96 90.1302 219.65C88.0402 217.92 85.1702 217.97 82.6802 218.63C79.6902 219.42 77.2102 221.17 74.4702 222.52C71.6302 223.92 68.1102 225.12 65.3302 222.98C64.5802 222.41 63.7802 223.48 64.1402 224.17C66.4302 228.62 71.0902 231.66 76.1102 231.84C81.1202 232.02 85.9502 229.25 88.5302 225C89.0502 224.14 87.7102 223.36 87.1802 224.21C84.8602 227.98 80.5602 230.37 76.1102 230.19C72.6602 230.05 69.4602 228.33 67.2702 225.74C71.0802 226.54 75.2202 224.2 78.5302 222.3C80.7502 221.02 83.3602 219.87 85.9802 219.93C87.2602 219.96 88.5102 220.37 89.4202 221.31C90.3802 222.3 90.8302 224.01 89.7602 225.08C89.3302 225.51 89.5002 226.35 90.1302 226.48C104.01 229.5 119.07 230.71 132.75 226.13C139.16 223.98 146 220.42 150.22 214.98C154.21 209.83 154.72 201.79 148.36 198.26L148.35 198.28Z" fill="#ADBFFD"/>
<path d="M222.51 42.15C222.7 43.29 222.9 44.41 223.14 45.54C223.37 46.61 223.53 47.74 224.31 48.55C224.54 48.79 225.02 48.76 225.17 48.44C225.65 47.42 225.47 46.34 225.34 45.24C225.21 44.15 225.07 43.08 224.89 42C224.5 39.56 224.13 37.12 223.69 34.69C223.69 34.65 223.68 34.61 223.67 34.58C225.44 34.57 227.21 33.95 228.51 32.74C228.65 33.95 228.8 35.16 228.99 36.36C229.31 38.36 229.71 40.34 230.25 42.29C230.68 43.84 231.17 46.58 232.67 47.46C233.05 47.68 233.44 47.46 233.59 47.09C233.9 46.3 233.61 45.37 233.44 44.56C233.23 43.57 232.92 42.61 232.66 41.63C232.17 39.75 231.7 37.85 231.3 35.95C230.9 34.05 230.51 32.08 230.22 30.11C230.98 28 230.75 25.57 229.57 23.62C229.2 23 228.17 23.24 228.19 24C228.24 26.16 228.13 28.32 228.29 30.48C227.31 32.15 225.57 33.36 223.49 33.52C222.74 29.08 222.16 24.49 220.72 20.25C220.51 19.64 219.57 19.72 219.57 20.41C219.55 25.22 220.62 30.1 221.33 34.85C221.69 37.29 222.11 39.73 222.52 42.16L222.51 42.15Z" fill="#ADBFFD"/>
<path d="M239.62 41.5399C241.11 40.6599 241.88 39.2499 242.33 37.6999C242.43 37.8399 242.52 37.9899 242.63 38.1199C243.04 38.5999 243.59 39.0099 244.16 39.2899C244.85 39.6299 245.43 39.75 246.12 39.33C246.43 39.15 246.45 38.7599 246.23 38.4999C246.09 38.3299 245.95 38.1499 245.78 38.0199C245.58 37.8699 245.32 37.8099 245.1 37.6899C244.68 37.4799 244.34 37.1899 244.02 36.8499C243.38 36.1699 242.99 35.3599 242.98 34.4099C242.98 34.0199 242.67 33.7599 242.34 33.6799C241.94 32.0899 240.49 31.0199 238.86 30.7999C236.79 30.5199 234.84 31.7399 233.94 33.5899C233 35.5199 232.87 37.9299 233.83 39.8799C234.92 42.1199 237.53 42.7699 239.63 41.5299L239.62 41.5399ZM238.06 32.5099C239.4 32.2599 240.95 32.9699 241.24 34.3799C241.26 34.4799 241.31 34.5499 241.36 34.6199C241.1 36.2199 240.76 37.9999 239.55 39.1299C238.64 39.9899 236.96 40.49 236.03 39.4C234.38 37.47 235.37 33.0099 238.06 32.5099Z" fill="#ADBFFD"/>
<path d="M251.22 46.8399C251.73 48.0199 252.29 49.2099 252.9 50.3399C253.44 51.3199 253.9 52.3299 255.09 52.4699C255.34 52.4999 255.63 52.3099 255.75 52.0899C256.28 51.1299 255.73 50.2399 255.33 49.3199C254.83 48.1699 254.26 47.0399 253.73 45.8999C252.83 43.9999 251.96 42.0999 251.14 40.1799C251.75 40.2799 252.44 40.0299 252.95 39.7299C253.5 39.4199 254.03 38.9899 254.44 38.5099C255.27 37.5199 255.74 36.1499 255.74 34.8599C255.74 32.3699 253.85 30.3699 251.45 29.8999C250.21 29.6599 248.91 29.8299 247.84 30.5199C247.56 30.6999 247.8 31.1099 248.1 30.9599C249.81 30.0999 252.01 30.6299 253.23 32.0799C253.8 32.7599 254.06 33.5999 254 34.4799C253.98 34.8299 253.82 35.3799 253.7 35.6399C253.61 35.8399 253.5 36.0299 253.39 36.2199C253.32 36.3299 253.25 36.4399 253.17 36.5399C253.25 36.4299 253.06 36.6699 253.03 36.6999C252.85 36.8999 252.66 37.1099 252.46 37.2999C252.42 37.3399 252.13 37.5799 252.27 37.4699C252.17 37.5499 252.06 37.6199 251.95 37.6799C251.83 37.7599 251.7 37.8199 251.57 37.8899C251.45 37.9499 251.57 37.8899 251.59 37.8899C251.47 37.9499 251.34 37.9899 251.23 38.0599C250.93 38.2199 250.69 38.3599 250.47 38.5899C248.61 34.0099 246.87 29.4099 245.5 24.6599C245.34 24.1199 244.57 24.3499 244.67 24.8899C245.6 29.9699 246.79 35.0599 248.52 39.9299C249.35 42.2599 250.24 44.5599 251.23 46.8299L251.22 46.8399Z" fill="#ADBFFD"/>
<path d="M260.15 33.92C260.53 34.9 261.08 35.75 261.74 36.57C262.39 37.36 263.26 37.99 264.33 37.75C265.32 37.53 266.02 36.68 266.59 35.9C266.95 35.4 267.23 34.85 267.46 34.27C267.8 34.7 268.18 35.11 268.61 35.41C269.37 35.93 270.17 36.14 271.09 36.11C271.45 36.1 271.76 35.58 271.42 35.31C270.9 34.9 270.4 34.42 269.92 33.96C269.43 33.49 268.96 33.03 268.6 32.44C268.41 32.13 268.25 31.81 268.11 31.47C268.18 30.36 268.08 29.24 267.76 28.21C267.53 27.46 266.34 27.37 266.14 28.21C265.85 29.48 265.87 30.82 266.26 32.06C266.22 32.22 266.19 32.38 266.14 32.54C265.93 33.19 265.61 33.8 265.21 34.35C264.93 34.73 264.36 35.54 263.86 35.62C263.85 35.62 263.85 35.62 263.86 35.63C263.85 35.63 263.84 35.62 263.81 35.6C263.68 35.53 263.58 35.41 263.49 35.3C263.27 35.06 263.07 34.8 262.88 34.53C262.45 33.91 262.04 33.25 261.68 32.58C261.33 31.92 261.06 31.23 260.86 30.5C260.67 29.82 260.51 29.01 260.17 28.39C260.08 28.22 259.82 28.23 259.73 28.39C259.3 29.15 259.33 30.22 259.43 31.06C259.55 32.04 259.77 33 260.13 33.92H260.15Z" fill="#ADBFFD"/>
<path d="M276.97 34.3501C278.4 35.3401 280.16 35.6401 281.85 35.3201C282.81 35.1401 283.66 34.6101 284.4 34.0001C285.13 33.3901 285.54 32.5701 285.77 31.6601C285.89 31.1801 285.31 30.8501 284.95 31.1801C284.42 31.6801 283.73 32.0701 283.09 32.4201C282.46 32.7601 281.71 32.9701 281 33.0701C279.73 33.2601 278.38 32.7601 277.42 31.7801C276.49 30.8301 275.89 29.3601 276.21 28.0101C276.52 26.6901 278 25.5001 279.35 26.2401C279.74 26.4501 280.13 25.9501 279.82 25.6301C278.75 24.4801 276.75 24.4501 275.57 25.4501C274.18 26.6301 273.84 28.6301 274.18 30.3401C274.51 31.9901 275.62 33.4101 276.97 34.3501Z" fill="#ADBFFD"/>
<path d="M285.3 38.6101C283.73 39.4901 283.31 41.0301 283.61 42.7401C283.97 44.7301 285.34 46.2701 286.87 47.5001C289.56 49.6701 294.03 52.8201 297.23 49.7501C300.59 46.5401 297.97 41.5801 296.82 38.0201C295.57 34.1401 294.61 30.0701 294.12 26.0001C294.27 24.9401 294.18 23.8301 293.81 22.8201C293.52 22.0001 292.13 22.0501 292.19 23.0401C292.26 24.0701 292.34 25.1001 292.44 26.1301C292.21 27.2601 291.55 28.2301 290.23 28.5301C288.17 29.0001 286.43 26.4301 288.15 24.9101C288.47 24.6301 288.06 24.1201 287.7 24.3301C286.55 24.9801 286.08 26.2601 286.27 27.5401C286.5 29.1201 287.78 30.1301 289.34 30.2401C290.81 30.3401 291.95 29.8201 292.75 28.9601C292.97 30.6501 293.25 32.3301 293.64 34.0001C294.07 35.8401 294.58 37.6501 295.17 39.4401C295.77 41.2601 296.68 43.1201 296.8 45.0601C296.89 46.6101 296.3 48.5001 294.58 48.8401C292.94 49.1601 291.25 48.0301 289.97 47.1401C287.47 45.4101 284.38 42.8101 286.12 39.4301C286.39 38.9001 285.84 38.2901 285.29 38.6001L285.3 38.6101Z" fill="#ADBFFD"/>
<path d="M299.83 29.3999C301.06 30.8399 303.13 31.6299 304.99 31.1499C306.69 30.7199 307.76 29.4799 308.44 27.9799C308.79 28.5099 309.21 28.9999 309.74 29.3999C310.72 30.1699 311.99 30.6599 313.24 30.6499C314.63 30.6399 315.61 30.1999 316.52 29.1599C316.84 28.7899 316.53 28.2299 316.04 28.3399C314.48 28.6999 312.35 28.7099 311 27.7499C310 27.0399 309.41 25.8599 309.33 24.6599C309.41 24.1099 309.46 23.5699 309.49 23.0599C309.55 21.9899 307.91 21.7999 307.64 22.8099C307.47 23.4399 307.41 24.0899 307.43 24.7299C307.14 26.5999 306.45 28.6699 304.7 29.2899C303.24 29.8199 301.72 28.9199 300.71 27.8999C299.5 26.6699 298.91 24.9399 298.33 23.3499C298.12 22.7699 297.24 22.9899 297.39 23.6099C297.88 25.6499 298.42 27.7499 299.82 29.3899L299.83 29.3999Z" fill="#ADBFFD"/>
<path d="M301.98 18.08C302.83 18.61 303.82 18.74 304.77 18.41C305.78 18.05 306.67 17.38 307.33 16.54C307.74 16.03 308.06 15.48 308.28 14.86C308.48 14.31 308.71 13.73 308.73 13.15C308.75 12.64 308.14 12.47 307.8 12.76C307.4 13.1 307.13 13.59 306.8 13.99C306.59 14.24 306.4 14.49 306.21 14.75C306.15 14.83 306.09 14.91 306.03 14.99C306.02 15 306.01 15.01 305.99 15.04C305.91 15.13 305.84 15.22 305.77 15.32C305.29 15.95 304.61 16.57 303.75 16.77C303.71 16.77 303.56 16.79 303.53 16.79C303.42 16.79 303.31 16.79 303.2 16.79C303.16 16.79 303.13 16.79 303.09 16.79C303.09 16.79 303.09 16.79 303.06 16.79C302.96 16.77 302.87 16.75 302.77 16.72C302.44 16.62 302.09 16.43 301.8 16.16C301.29 15.67 301.04 15.01 301.47 14.37C301.75 13.96 301.13 13.5 300.8 13.85C299.45 15.24 300.6 17.22 301.97 18.08H301.98Z" fill="#ADBFFD"/>
<path d="M316.38 46.6499C314.35 46.9999 312.52 47.8899 311.15 49.4499C309.84 50.9399 309.11 52.8399 309.31 54.8399C309.51 56.7799 310.45 58.6199 312.16 59.6399C314.01 60.7499 316.42 60.7099 318.39 59.9499C319.61 59.4799 320.74 58.6999 321.66 57.7699C322.59 56.8399 323.27 55.7599 323.95 54.6399C324.24 54.1599 323.61 53.7499 323.21 54.0699C322.47 54.6799 321.7 55.2299 320.96 55.8399C320.25 56.4299 319.5 56.9999 318.69 57.4499C317.25 58.2499 315.53 58.7299 313.91 58.2399C310.78 57.2999 310.55 53.2699 312.11 50.9199C313.13 49.3799 314.92 48.1999 316.62 47.5299C317.16 47.3199 316.96 46.5599 316.38 46.6599V46.6499Z" fill="#ADBFFD"/>
<path d="M329.39 54.0899C331.44 54.0899 332.82 52.6099 333.15 50.6699C333.48 48.7199 333.41 46.3099 332.38 44.5699C331.38 42.8799 329.01 41.6099 327.16 42.7599C327.13 42.7799 327.11 42.7999 327.08 42.8199C327.45 41.8499 327.7 40.8399 327.8 39.7699C327.96 38.0599 327.75 36.0499 326.26 34.9299C325.7 34.5099 325 34.3499 324.33 34.5799C323.33 34.9299 323.24 36.4999 323.06 37.3999C322.59 39.7299 322.51 42.1199 322.81 44.4799C323.27 48.0799 324.76 54.0999 329.38 54.0899H329.39ZM326.81 46.8899C327.11 47.0999 327.45 46.6999 327.29 46.4099C326.83 45.5999 327.44 44.2899 328.31 43.9999C329.75 43.5299 330.95 45.0599 331.3 46.2499C331.88 48.1899 331.95 53.0299 328.71 52.1299C326.32 51.4699 325.3 48.1999 324.78 45.8499C324.86 46.0499 325.17 46.1299 325.35 45.8999C325.53 45.6599 325.7 45.4199 325.87 45.1699C325.9 45.8199 326.18 46.4599 326.81 46.8899ZM324.94 35.9099C325.53 35.8299 326.01 36.6199 326.23 37.0999C326.61 37.9399 326.59 38.8599 326.53 39.7599C326.39 41.7799 325.79 43.8199 324.81 45.5799C324.77 45.6499 324.76 45.7199 324.77 45.7799C324.71 45.5099 324.66 45.2499 324.61 45.0099C324.01 41.9899 324.15 38.8699 324.94 35.8999V35.9099Z" fill="#ADBFFD"/>
<path d="M337.5 45.1599C337.5 46.4899 338.08 47.8399 339.14 48.6999C341.27 50.4299 344.35 49.6999 346.02 47.6799C347.94 45.3499 347.59 42.1799 345.74 39.9199C343.94 37.7199 340.27 36.3599 338.08 38.7999C336.98 40.0299 336.61 41.5999 336.84 43.2099C336.94 43.9199 337.18 44.5599 337.49 45.1599H337.5ZM339.2 40.9299C339.5 40.2399 340.07 39.5999 340.86 39.4999C341.84 39.3699 342.9 39.9099 343.63 40.5199C345.11 41.7499 346.03 43.9199 345.14 45.7599C344.4 47.2799 342.49 48.5099 340.8 47.7999C340.57 47.6999 340.35 47.5699 340.15 47.4099C339.71 46.2499 339.3 45.0699 339.04 43.8599C339.03 43.7899 339.02 43.7299 339.01 43.6599C339.06 43.5399 339.1 43.4099 339.18 43.2999C339.37 42.9999 339.17 42.6499 338.89 42.5199C338.89 41.9899 338.97 41.4599 339.2 40.9199V40.9299Z" fill="#ADBFFD"/>
<path d="M355.26 45.01C357.76 44.88 358.84 42.69 359.3 40.43C360.06 41.84 361.05 43.1 362.49 43.88C363.51 44.43 364.65 44.71 365.8 44.56C366.95 44.41 367.78 43.82 368.36 42.82C368.59 42.43 368.13 41.98 367.75 42.21C366.37 43.03 364.29 42.84 362.96 41.97C361.31 40.89 360.39 38.88 359.51 37.19C359.15 36.5 358.08 36.84 358.08 37.58C358.08 39.33 357.65 42.85 355.48 43.27C354.13 43.54 353.11 42.31 352.69 41.17C352.04 39.43 352.69 37.45 353.21 35.76C353.35 35.31 352.63 34.98 352.42 35.43C351.53 37.44 350.55 39.71 351.23 41.93C351.76 43.65 353.38 45.12 355.26 45.02V45.01Z" fill="#ADBFFD"/>
<path d="M359.11 30.01C361.21 30.01 363.8 28.24 363.59 25.95C363.55 25.46 362.93 25.25 362.64 25.69C361.81 27 360.78 28.32 359.1 28.43C357.5 28.53 355.97 27.43 355.5 25.9C355.27 25.16 354.15 25.46 354.33 26.22C354.84 28.37 356.89 30 359.1 30.01H359.11Z" fill="#ADBFFD"/>
<path d="M237.47 103.28C239.98 104.12 242.85 103.47 245.31 102.77C247.01 102.28 248.61 101.61 250.15 100.76C251.62 99.9499 253.28 98.8899 254.35 97.5599C254.67 97.1599 254.39 96.4099 253.8 96.6099C252.42 97.0899 251.08 97.8199 249.74 98.4199C248.34 99.0499 246.86 99.5399 245.4 100.01C243.21 100.72 240.31 101.66 238.03 100.78C236.95 100.36 236.42 99.4999 236.25 98.3699C236.05 97.0399 236.07 95.5399 236.41 94.2399C236.74 92.9799 237.41 91.9499 238.65 91.4799C239.75 91.0699 240.9 91.0699 241.7 92.0299C241.97 92.3499 242.42 91.9399 242.25 91.5999C241.31 89.6899 238.78 89.3999 237.04 90.3499C234.65 91.6599 234.03 94.6899 233.94 97.1799C233.84 99.9199 234.68 102.34 237.46 103.28H237.47Z" fill="#ADBFFD"/>
<path d="M251.86 85.9801C254.65 87.2901 257.57 87.9801 260.65 87.8901C260.96 89.9101 261.49 91.8801 262.28 93.7601C262.72 94.8201 263.25 95.8201 263.85 96.7901C264.46 97.7701 265.15 99.0901 266.26 99.5401C267.04 99.8601 267.71 98.9501 267.54 98.2601C267.4 97.6801 266.98 97.2801 266.61 96.8401C266.28 96.4501 265.96 96.0501 265.66 95.6301C265.04 94.7801 264.47 93.8801 263.94 92.9701C262.98 91.3501 262.24 89.6301 261.68 87.8401C264.38 87.6101 267.35 86.7801 269.2 84.8101C269.69 84.2801 269.2 83.5501 268.53 83.6701C265.83 84.1301 263.29 85.1501 260.55 85.4901C257.82 85.8201 254.94 85.6701 252.28 84.9601C251.68 84.8001 251.25 85.7101 251.84 86.0001L251.86 85.9801Z" fill="#ADBFFD"/>
<path d="M276.57 81.2501C277.2 83.6701 277.93 86.0701 278.81 88.4201C279.31 89.7601 279.85 91.0801 280.42 92.3901C280.73 93.1001 281.04 93.8101 281.37 94.5101C281.69 95.2101 281.94 95.9301 282.65 96.3101C283.32 96.6701 284.04 96.2101 284.09 95.4801C284.15 94.6901 283.64 94.0501 283.26 93.3901C282.92 92.8101 282.59 92.2201 282.27 91.6301C281.72 90.6201 281.21 89.6001 280.7 88.5701C281.24 88.3901 281.74 88.1001 282.2 87.7601C283.01 87.1601 283.8 86.5501 284.56 85.8901C285.87 84.7501 287.38 83.6401 287.47 81.7501C287.54 80.2301 286.65 79.0601 285.48 78.2101C284.23 77.3101 282.68 77.1301 281.22 77.5301C279.61 77.9801 278.25 79.0001 276.97 80.0401C276.92 79.9201 276.87 79.8001 276.83 79.6801C276.69 79.3101 276.13 79.4501 276.23 79.8501C276.29 80.0901 276.36 80.3401 276.42 80.5801C276.33 80.8001 276.42 81.0601 276.59 81.2401L276.57 81.2501ZM281.82 78.8501C283.14 78.6001 284.74 79.0901 285.28 80.4301C285.51 81.0101 285.41 81.3901 285.06 81.8101C284.48 82.4901 283.92 82.8701 283.22 83.3901C282.33 84.0401 281.46 84.7101 280.6 85.4001C280.25 85.6901 279.91 85.9901 279.62 86.3301C278.84 84.6601 278.11 82.9601 277.43 81.2501C278.75 80.2401 280.16 79.1801 281.81 78.8701L281.82 78.8501Z" fill="#ADBFFD"/>
<path d="M298.87 79.06C299.27 77.77 299.77 76.5 300.24 75.24C300.36 74.93 299.86 74.72 299.7 75.01C299.08 76.22 298.47 77.44 297.78 78.61C297.11 79.74 296.43 80.85 295.83 82.02C294.62 84.36 293.13 86.75 292.36 89.28C291.95 90.63 293.91 91.42 294.62 90.23C295.31 89.07 295.81 87.72 296.28 86.45L296.93 84.72C299.05 84.45 301.18 84.17 303.3 83.9C304.38 83.76 305.47 83.63 306.55 83.45C307.22 84.2 307.9 84.95 308.59 85.69C309.08 86.21 309.59 86.69 310.1 87.18C310.69 87.74 311.26 88.33 312.03 88.63C313.11 89.05 313.82 87.7 313.4 86.85C313.1 86.24 312.47 85.77 311.98 85.31C311.46 84.82 310.95 84.33 310.42 83.87C310.03 83.52 309.65 83.17 309.26 82.82C309.47 82.73 309.68 82.63 309.88 82.51C310.2 82.3 310.18 81.75 309.77 81.65C309.15 81.5 308.52 81.51 307.9 81.58C307.72 81.41 307.54 81.26 307.36 81.09C305.35 79.21 303.3 77.36 301.33 75.44C300.95 75.07 300.22 75.57 300.56 76.03C302.06 78.08 303.6 80.1 305.26 82.02C304.54 82.16 303.82 82.3 303.1 82.46C301.18 82.87 299.25 83.27 297.33 83.68C297.44 83.39 297.55 83.1 297.66 82.81C298.12 81.59 298.48 80.34 298.87 79.09V79.06Z" fill="#ADBFFD"/>
<path d="M327.49 75.13C329 72.68 330.54 70.25 332.25 67.92C332.76 67.23 331.62 66.3401 331.05 67.0001C329.05 69.3101 327.06 71.65 325.23 74.1C324.43 73.71 323.63 73.3201 322.83 72.9101C321.07 72.0001 319.35 70.85 317.53 70.1C316.96 69.87 316.58 70.6901 316.96 71.0801C318.32 72.4701 320.21 73.5701 321.86 74.5801C322.57 75.0101 323.29 75.4101 324.01 75.8201C323.82 76.0901 323.62 76.36 323.43 76.63C322.31 78.29 321.21 79.9701 320.24 81.7301C319.26 83.5201 318.15 85.36 317.96 87.42C317.89 88.2 318.9 88.4501 319.39 88.0101C320.86 86.7201 321.72 84.83 322.7 83.17C323.72 81.45 324.69 79.7 325.74 77.99C325.93 77.68 326.12 77.3601 326.32 77.0501C326.71 77.2501 327.1 77.4601 327.5 77.6501C329.35 78.5501 331.24 79.3301 333.18 80.0101C335.23 80.7301 337.09 81.28 339.28 81.1C339.77 81.06 339.94 80.4701 339.53 80.1901C337.8 79.0001 335.98 78.4201 334.02 77.7201C332.11 77.0401 330.22 76.3 328.35 75.52C328.06 75.4 327.78 75.26 327.49 75.14V75.13Z" fill="#ADBFFD"/>
<path d="M347.19 77.8001C347.4 78.1201 347.59 78.4601 347.75 78.8101C347.94 79.2301 348.05 79.4401 348.16 79.7501C348.29 80.1101 348.4 80.4901 348.49 80.8701C348.53 81.0401 348.56 81.2101 348.59 81.3801C348.59 81.4301 348.61 81.5101 348.61 81.5401C348.62 81.6501 348.63 81.7601 348.64 81.8601C348.68 82.6301 348.66 83.4101 348.59 84.1801C348.57 84.4001 348.42 84.8501 348.32 85.1901C348.21 85.5701 348.12 85.9501 347.97 86.3201C347.69 87.0401 348.67 87.4001 349.15 87.0001C349.51 86.6901 349.88 86.3501 350.14 85.9501C350.27 85.7501 350.37 85.5401 350.47 85.3301C350.57 85.1101 350.66 84.9101 350.73 84.7501C351.17 83.8101 351.35 82.7701 351.28 81.7201C351.2 80.6701 350.98 79.6901 350.53 78.7401C350.07 77.7801 349.4 77.0701 348.56 76.4201C347.76 75.8101 346.67 76.9901 347.2 77.7801L347.19 77.8001Z" fill="#ADBFFD"/>
<path d="M216.66 143.88C216.23 143.33 215.84 142.75 215.44 142.18C214.74 141.17 214.16 140.09 213.69 138.95C214.03 138.78 214.36 138.61 214.68 138.41C215.35 138 216.3 137.42 216.37 136.55C216.39 136.33 216.2 136.13 216 136.07C215.25 135.84 214.36 136.45 213.74 136.8C213.04 137.19 212.33 137.58 211.61 137.94C210.19 138.66 208.73 139.33 207.22 139.85C207.1 139.89 207.02 139.96 206.96 140.03C205.18 138.85 202.8 138.62 200.87 139.71C199.42 140.53 198.62 141.99 198.5 143.62C198.44 144.41 198.62 145.19 198.96 145.91C199.12 146.25 199.41 146.54 199.74 146.79C199.96 147.82 200.31 148.82 200.96 149.68C201.81 150.8 203.08 151.6 204.52 151.57C205.95 151.54 207.31 150.75 208.23 149.67C210.14 147.41 210.27 143.96 208.55 141.54C208.36 141.27 208.14 141.03 207.92 140.81C209.47 140.55 210.97 140.16 212.43 139.54C212.53 139.5 212.63 139.45 212.74 139.4C213.02 140.66 213.43 141.87 213.98 143.05C214.3 143.74 214.71 144.37 215.17 144.97C215.67 145.64 216.22 146.48 217.04 146.77C217.63 146.98 218.25 146.33 218.06 145.75C217.83 145.02 217.15 144.47 216.69 143.88H216.66ZM207.41 147.88C206.4 149.59 204.19 150.72 202.56 149.1C202.01 148.55 201.59 147.83 201.26 147.09C201.34 146.97 201.35 146.81 201.23 146.65C201.1 146.47 200.98 146.29 200.9 146.09C200.81 145.87 200.83 145.63 200.77 145.4C200.63 144.87 200.56 144.53 200.57 143.98C200.58 143.17 200.92 142.32 201.53 141.72C202.99 140.32 205.41 140.67 206.73 142.06C208.15 143.56 208.46 146.09 207.41 147.87V147.88Z" fill="#ADBFFD"/>
<path d="M225.04 143.12C224.58 142.25 223.84 141.48 223.22 140.73C222.63 140.02 222.04 139.31 221.45 138.6C220.41 137.35 219.38 136.1 218.34 134.85C218.98 134.74 219.61 134.64 220.25 134.53C220.68 134.46 221.12 134.39 221.55 134.31C221.87 134.26 222.45 134.06 222.81 134.14C222.92 134.27 223.05 134.39 223.17 134.54C223.43 134.89 223.64 135.31 223.87 135.68C224.36 136.5 224.9 137.28 225.44 138.08C225.97 138.86 226.47 139.66 227.06 140.39C227.5 140.94 228.56 141.67 229.09 140.8C229.6 139.97 228.79 138.95 228.32 138.31L226.61 135.99C226.06 135.24 225.48 134.52 224.88 133.79C224.64 133.5 224.4 133.23 224.09 133.01C223.93 132.9 223.76 132.8 223.56 132.77C223.44 132.75 223.34 132.77 223.22 132.79C223.15 132.82 223.09 132.85 223.02 132.88C223.05 132.85 223.09 132.83 223.12 132.8C222.68 132.71 222.18 132.87 221.76 132.98C221.27 133.12 220.78 133.26 220.29 133.41C219.45 133.66 218.62 133.91 217.78 134.15C217.66 134.02 217.47 134.11 217.43 134.25C217.37 134.27 217.31 134.29 217.25 134.3C216.82 134.43 217 135.03 217.43 134.96C217.54 134.94 217.65 134.92 217.76 134.91C218.67 136.37 219.58 137.83 220.5 139.3C220.99 140.09 221.48 140.88 221.97 141.66C222.49 142.5 223 143.42 223.68 144.14C224.38 144.87 225.5 143.94 225.04 143.09V143.12Z" fill="#ADBFFD"/>
<path d="M233.31 132.2C233.31 132.2 233.31 132.2 233.31 132.21C233.29 132.28 233.28 132.34 233.27 132.41C233.24 132.52 233.2 132.63 233.17 132.74C233.14 132.8 233.11 132.85 233.08 132.91C233.02 133.03 232.94 133.14 232.87 133.25C232.83 133.3 232.79 133.35 232.74 133.39C232.66 133.47 232.58 133.55 232.5 133.64C232.14 134.04 231.74 134.3 231.73 134.91C231.72 135.46 232.07 135.88 232.59 136.04C233.22 136.23 233.77 135.84 234.21 135.44C234.71 134.99 235.02 134.28 235.17 133.64C235.32 132.98 235.34 132.31 235.2 131.66C235.08 131.07 234.79 130.43 234.34 130.02C234.02 129.73 233.51 129.75 233.11 129.71C232.76 129.67 232.42 129.66 232.07 129.69C230.8 129.77 229.58 130.23 228.57 130.98C228.52 130.9 228.47 130.83 228.43 130.76C228.26 130.49 227.75 130.67 227.89 130.99C227.95 131.13 228.01 131.26 228.07 131.4C228.02 131.44 227.97 131.48 227.92 131.52C227.68 131.76 228.01 132.23 228.3 132.01C228.3 132.01 228.32 132 228.33 131.99C229.39 134.42 230.61 136.8 232.13 138.96C232.58 139.6 233.13 140.75 234.03 140.66C234.49 140.61 234.82 140.28 234.87 139.82C234.93 139.29 234.56 138.93 234.24 138.55C233.25 137.41 232.27 136.24 231.36 135.03C230.51 133.92 229.73 132.76 228.98 131.58C229.56 131.26 230.2 131.04 230.86 130.95C231.6 130.84 232.53 130.87 233.21 131.16C233.21 131.18 233.22 131.19 233.23 131.21C233.27 131.32 233.3 131.43 233.32 131.54C233.33 131.59 233.35 131.81 233.32 131.57C233.32 131.64 233.33 131.7 233.33 131.77C233.33 131.91 233.33 132.04 233.32 132.18L233.31 132.2Z" fill="#ADBFFD"/>
<path d="M247.39 136.58C247.73 136.87 248.2 136.94 248.57 136.65C248.89 136.39 249.07 135.86 248.8 135.49C248.21 134.66 247.46 133.95 246.8 133.19C246.89 133.11 246.99 133.03 247.07 132.93C247.29 132.66 247.57 132.37 247.66 132.02C247.74 131.73 247.52 131.43 247.21 131.43C246.9 131.43 246.62 131.57 246.33 131.65C246.12 131.71 245.91 131.8 245.71 131.89C245.43 131.55 245.14 131.22 244.86 130.88C243.58 129.32 242.41 127.68 241.34 125.98C241.05 125.52 240.38 125.92 240.61 126.41C241.49 128.25 242.48 130.04 243.59 131.76C243.77 132.04 243.97 132.32 244.16 132.6C244.01 132.66 243.87 132.73 243.72 132.78C242.92 133.06 242.08 133.25 241.23 133.35C241.14 131.73 241.19 130.13 241.17 128.51C241.17 128.11 240.66 128.1 240.53 128.42C239.85 130.04 239.61 131.89 239.56 133.66C239.24 133.95 239.24 134.49 239.56 134.8C239.58 135.5 239.61 136.2 239.69 136.9C239.75 137.4 239.83 137.89 239.94 138.38C240.05 138.88 240.1 139.41 240.53 139.74C240.93 140.05 241.67 140.14 241.93 139.56C242.18 138.99 242.08 138.61 241.95 138.04C241.85 137.57 241.76 137.1 241.67 136.63C241.56 136.11 241.48 135.59 241.41 135.07C242.39 135.03 243.35 134.86 244.29 134.54C244.63 134.42 244.98 134.3 245.32 134.15C245.34 134.18 245.37 134.22 245.39 134.25C246.02 135.05 246.64 135.94 247.43 136.6L247.39 136.58Z" fill="#ADBFFD"/>
<path d="M248.99 127.45C249.15 127.94 249.36 128.41 249.62 128.8C250.06 129.45 250.58 130.04 251.1 130.64C251.65 131.43 252.21 132.21 252.77 132.97C253.07 133.38 253.52 133.43 253.87 133.28C253.97 133.56 254.17 133.79 254.51 133.89C257.33 134.68 259.97 131.29 258.76 128.73C258.09 127.32 256.5 126.6 255 126.71C255.14 125.79 255.04 124.84 254.56 124.01C253.83 122.78 252.28 121.89 250.84 122.36C249.55 122.79 248.93 123.85 248.77 125.05C248.52 124.78 248.28 124.52 248.02 124.26C247.71 123.95 247.25 124.34 247.43 124.71C247.9 125.65 248.44 126.55 249 127.44L248.99 127.45ZM250.37 125.22C250.54 124.22 251.35 123.45 252.38 124.01C253.87 124.82 253.29 126.77 252.58 127.89C252 128.81 253.32 129.82 254.08 129.04C254.86 128.24 256.5 128.48 257.06 129.52C257.34 130.05 257.15 130.71 256.73 131.17C256.18 131.78 255.55 131.91 254.78 131.86C254.56 131.85 254.38 131.91 254.23 132.01C253.8 131.18 253.2 130.47 252.59 129.77C252.15 129.19 251.71 128.6 251.26 128.04C251.1 127.83 250.93 127.63 250.77 127.42C250.42 126.75 250.24 126.01 250.38 125.21L250.37 125.22Z" fill="#ADBFFD"/>
<path d="M263.61 131.95C265.42 131.55 267.09 129.91 267.82 128.25C268.52 126.65 268.51 124.72 267.57 123.2C266.71 121.81 265.16 121.11 263.56 121.53C262.41 121.83 261.42 122.7 261.16 123.83C259.83 122.21 258.51 120.57 257.21 118.91C256.98 118.62 256.5 119 256.69 119.31C257.85 121.14 258.99 122.97 260.1 124.83C260.65 125.74 261.2 126.65 261.79 127.53C262.24 128.21 262.69 129.15 263.34 129.74C263.1 129.93 262.87 130.13 262.65 130.34C261.93 131.04 262.68 132.16 263.59 131.96L263.61 131.95ZM264.86 123.05C266.38 123.39 266.68 125.33 266.26 126.58C265.97 127.42 265.42 128.03 264.8 128.58C264.65 128.29 264.44 128.02 264.24 127.75C264.12 127.59 263.99 127.42 263.87 127.26C263.81 127.16 263.75 127.05 263.68 126.95C263.26 126.36 262.71 125.74 262.53 125.03C262.2 123.7 263.68 122.8 264.86 123.06V123.05Z" fill="#ADBFFD"/>
<path d="M287.22 122.95C286.61 120.97 285.9 119.03 285.1 117.11C286.66 118.08 288.34 118.84 290.12 119.35C290.62 119.49 291.1 119.17 291.26 118.7C291.35 118.43 291.43 118.15 291.5 117.87C291.65 118.18 291.8 118.49 291.97 118.79C292.49 119.75 293.05 120.7 293.65 121.61C294.16 122.39 294.9 123.87 296 123.77C296.43 123.73 296.74 123.51 296.88 123.1C297.22 122.12 296.18 121.17 295.64 120.44C295.01 119.59 294.42 118.71 293.87 117.82C292.79 116.06 291.81 114.22 291.09 112.29C290.66 111.2 288.88 111.66 289.31 112.78C289.88 114.24 290.02 115.76 289.72 117.26C287.47 116.52 285.38 115.37 283.59 113.81C282.84 113.15 281.78 113.97 282.22 114.87C283.05 116.55 283.79 118.28 284.46 120.02C284.23 119.74 284.01 119.44 283.8 119.13C282.9 117.8 282.28 116.3 281.87 114.75C281.83 114.59 281.6 114.66 281.63 114.82C282.14 118.03 283.59 121.39 285.87 123.74C286.43 124.31 287.47 123.73 287.23 122.95H287.22Z" fill="#ADBFFD"/>
<path d="M298.83 115.21C299.44 115.07 299.98 114.85 300.39 114.35C300.4 114.33 300.41 114.32 300.42 114.3C300.69 114.86 300.96 115.42 301.27 115.95C301.68 116.65 302.12 117.42 302.74 117.94C303.11 118.24 303.59 118.36 304.03 118.11C304.42 117.88 304.67 117.35 304.52 116.91C304.25 116.12 303.76 115.45 303.29 114.77C302.86 114.14 302.4 113.53 301.98 112.89C301.56 112.26 301.15 111.61 300.73 110.97C300.4 110.46 299.99 109.49 299.34 109.36C299.34 109.36 299.34 109.36 299.34 109.37C299.19 109.32 299.01 109.36 298.91 109.53C298.56 110.13 299.03 111.01 299.25 111.59C299.42 112.04 299.6 112.48 299.79 112.92C299.72 113.07 299.63 113.22 299.5 113.37C299.13 113.82 298.5 113.92 297.98 114.12C297.51 114.31 297.04 114.59 296.75 115.02C296.61 115.23 296.51 115.48 296.44 115.75C295.9 114.9 295.34 114.06 294.76 113.23C294.59 112.99 294.12 113.13 294.25 113.45C294.71 114.58 295.17 115.7 295.69 116.81C295.98 117.42 296.24 118.07 296.55 118.7C296.58 118.78 296.6 118.86 296.62 118.93C296.7 119.15 296.81 119.36 296.95 119.55C297 119.63 297.09 119.75 297.16 119.81C297.2 119.86 297.22 119.88 297.23 119.88C297.23 119.89 297.25 119.91 297.26 119.92C297.27 119.95 297.28 119.98 297.3 120C297.32 120.03 297.34 120.05 297.36 120.07C297.38 120.09 297.39 120.12 297.41 120.14C297.41 120.14 297.41 120.14 297.41 120.13C297.87 120.59 298.83 120.17 298.59 119.45C298.24 118.42 297.54 117.47 296.95 116.55C297.27 115.81 298.1 115.39 298.84 115.22L298.83 115.21Z" fill="#ADBFFD"/>
<path d="M314.65 113.86C314.67 113.28 314.05 113.05 313.59 113.25C313.39 113.34 313.12 113.43 312.91 113.59C312.88 113.61 312.8 113.72 312.86 113.63C312.83 113.65 312.81 113.67 312.78 113.69C312.77 113.69 312.78 113.69 312.76 113.69C312.52 113.78 312.32 113.89 312.1 114.02C312.01 114.07 311.91 114.12 311.81 114.17C311.78 114.19 311.69 114.22 311.64 114.24C311.31 114.36 310.98 114.48 310.64 114.57C310.45 114.62 310.27 114.66 310.08 114.69C309.94 114.7 309.79 114.71 309.65 114.72C309.47 114.72 309.28 114.72 309.1 114.7C309.1 114.7 308.95 114.68 308.91 114.68C308.86 114.68 308.82 114.66 308.81 114.66C308.63 114.62 308.46 114.58 308.28 114.52C308.21 114.5 308.15 114.47 308.08 114.45C308.06 114.44 307.88 114.36 307.84 114.34C307.66 114.25 307.5 114.14 307.34 114.03C307.26 113.96 307.18 113.89 307.1 113.81C306.99 113.7 306.89 113.59 306.79 113.48C306.76 113.44 306.69 113.35 306.68 113.33C306.62 113.24 306.56 113.15 306.5 113.06C306.5 113.05 306.49 113.04 306.48 113.03C307.46 112.68 308.42 112.29 309.19 111.58C310.01 110.82 310.52 109.78 310.47 108.65C310.43 107.61 309.95 106.51 308.98 106.02C307.71 105.37 306.32 105.9 305.31 106.78C303.6 108.28 303.13 110.87 303.7 113C304.29 115.21 306.12 116.96 308.4 117.33C309.72 117.55 311.2 117.47 312.4 116.84C312.95 116.55 313.55 116.15 313.94 115.66C314 115.59 314.05 115.53 314.09 115.45C314.12 115.4 314.32 115.05 314.17 115.26C314.25 115.14 314.34 115.03 314.41 114.91C314.59 114.59 314.63 114.24 314.64 113.88L314.65 113.86ZM305.87 110.16C305.87 110.11 305.9 109.99 305.9 109.97C305.92 109.88 305.94 109.79 305.96 109.7C306 109.54 306.11 109.22 306.13 109.16C306.21 108.98 306.43 108.57 306.62 108.34C306.88 108.03 307.21 107.74 307.61 107.64C307.74 107.61 307.87 107.6 308 107.62C308 107.62 308.14 107.68 308.17 107.68C308.21 107.71 308.28 107.75 308.29 107.76C308.39 107.85 308.43 107.91 308.47 107.97C308.6 108.18 308.59 108.18 308.64 108.37C308.73 108.7 308.73 108.99 308.65 109.3C308.56 109.66 308.38 109.97 308.09 110.27C307.49 110.91 306.73 111.37 305.97 111.79C305.96 111.73 305.94 111.68 305.92 111.63C305.9 111.56 305.89 111.49 305.88 111.42C305.88 111.38 305.87 111.34 305.86 111.29C305.86 111.29 305.86 111.26 305.86 111.19C305.85 110.84 305.84 110.5 305.87 110.15V110.16ZM307.37 114.04C307.49 114.14 307.42 114.08 307.37 114.04Z" fill="#ADBFFD"/>
<path d="M259.81 155.49C260.68 156.58 262.24 156.17 263.25 155.55C265.21 154.34 267.55 152.18 266.58 149.61C266.08 148.28 264.85 147.34 263.49 147C262.14 146.66 260.76 146.91 259.44 147.28C259.47 146.69 259.66 146.05 259.64 145.53C259.61 144.78 259.25 144.06 258.7 143.56C258.13 143.05 257.32 142.76 256.58 143.07C255.79 143.41 255.5 144.22 255.5 145.03C255.08 144.6 254.66 144.18 254.22 143.76C253.94 143.49 253.41 143.85 253.66 144.2C254.38 145.19 255.11 146.18 255.85 147.16C256.54 149.66 258.21 151.88 260.42 153.25C261.11 153.68 262.15 152.77 261.61 152.06C260.92 151.16 260.2 150.27 259.48 149.4C260.65 149.04 261.93 148.68 263.12 149.05C263.97 149.31 264.82 150.03 264.68 151C264.53 151.98 263.43 152.68 262.65 153.14C262.41 153.28 262.16 153.42 261.91 153.55C261.82 153.6 261.71 153.66 261.62 153.7C261.81 153.63 261.41 153.66 261.6 153.68C261.52 153.68 261.13 153.66 261.12 153.67C261.04 153.67 260.93 153.65 260.85 153.64C260.8 153.62 260.74 153.6 260.69 153.59C260.64 153.57 260.6 153.56 260.49 153.56C260.32 153.56 260.14 153.61 260 153.69C259.33 154.09 259.42 154.96 259.85 155.48L259.81 155.49ZM257.61 146.24C257.61 146.24 257.61 146.21 257.6 146.19C257.58 146.07 257.53 145.58 257.49 145.22C257.52 145.26 257.56 145.3 257.58 145.36C257.68 145.61 257.66 145.93 257.61 146.24ZM257.2 144.93C257.2 144.93 257.14 144.93 257.15 144.92C257.15 144.92 257.18 144.92 257.2 144.93Z" fill="#ADBFFD"/>
<path d="M271.77 144.24C272.01 144.24 272.22 144.31 272.46 144.3C272.7 144.3 272.96 144.25 273.19 144.19C273.64 144.06 274.08 143.88 274.52 143.72C274.93 143.57 275.33 143.41 275.72 143.25C276.14 144.3 276.63 145.32 277.21 146.28C277.66 147.01 278.14 147.72 278.66 148.41C278.95 148.8 279.24 149.18 279.59 149.52C280.02 149.94 280.44 150.4 281.09 150.41C281.63 150.41 282.15 149.93 282.12 149.38C282.09 148.75 281.72 148.42 281.32 147.99C281.02 147.67 280.72 147.37 280.4 147.07C279.8 146.49 279.22 145.88 278.68 145.24C278.01 144.45 277.39 143.63 276.81 142.78C276.91 142.74 277 142.7 277.1 142.65C277.91 142.28 278.7 141.9 279.47 141.46C280.24 141.02 281.15 140.57 281.58 139.77C281.78 139.55 281.99 139.33 282.13 139.06C282.34 138.64 282.07 138.24 281.63 138.19C281.36 138.16 281.08 138.21 280.8 138.26C279.92 138.15 279.03 138.66 278.26 139.02C277.42 139.41 276.61 139.82 275.8 140.25C275.01 140.66 274.24 141.07 273.47 141.51C273.09 141.73 272.69 141.93 272.32 142.17C272.11 142.3 271.92 142.46 271.75 142.63C271.57 142.81 271.48 143.02 271.32 143.2C270.97 143.6 271.2 144.25 271.76 144.27L271.77 144.24Z" fill="#ADBFFD"/>
<path d="M290.01 145.83C290.64 145.54 291.25 145.2 291.77 144.73C292.31 144.23 292.65 143.68 293.01 143.05C293.24 142.66 292.86 142.18 292.43 142.29C292.02 142.4 291.61 142.46 291.21 142.61C290.71 142.81 290.22 143.04 289.75 143.3C289.4 143.49 289.11 143.64 288.75 143.76C288.54 143.83 288.33 143.89 288.11 143.95C288.01 143.97 287.92 144 287.82 144.02C287.8 144.02 287.61 144.06 287.56 144.07C287.38 144.09 287.21 144.1 287.03 144.09C286.95 144.09 286.59 144.05 286.75 144.07C286.57 144.04 286.4 144 286.23 143.95C286.14 143.92 286.04 143.89 285.95 143.86C285.9 143.84 285.88 143.84 285.87 143.83C285.87 143.83 285.84 143.81 285.79 143.78C285.46 143.6 285.34 143.52 285.13 143.32C285.01 143.2 284.92 143.06 284.84 142.93C285.37 142.86 285.89 142.77 286.39 142.57C286.96 142.34 287.52 142.07 288.06 141.76C289.05 141.18 290.14 140.44 290.57 139.33C291.42 137.12 288.79 135.39 286.83 135.98C285.67 136.33 284.81 137.22 284.15 138.2C283.5 139.16 282.9 140.28 282.68 141.42C282.44 142.67 282.71 143.86 283.55 144.83C284.2 145.58 285.17 146.1 286.13 146.31C287.48 146.62 288.77 146.39 290.02 145.82L290.01 145.83ZM286.53 138.34C286.76 138.12 287.03 137.93 287.33 137.82C287.58 137.73 287.82 137.73 288.07 137.79C288.33 137.86 288.52 137.95 288.69 138.11C288.84 138.25 288.93 138.41 288.9 138.59C288.83 138.95 288.52 139.24 288.26 139.47C287.89 139.8 287.51 140.13 287.1 140.42C286.34 140.96 285.5 141.42 284.67 141.85C284.74 141.3 284.99 140.76 285.23 140.28C285.58 139.59 285.97 138.88 286.54 138.34H286.53Z" fill="#ADBFFD"/>
<path d="M303.86 143.05C304.91 142.44 304.22 141.12 303.73 140.39C302.85 139.1 301.78 138.03 300.62 136.99C299.35 135.86 297.95 134.87 296.48 134.01C295.79 133.61 295.04 134.27 295.2 135C295.82 137.8 296.31 140.67 297.32 143.36C297.48 143.78 298.17 143.76 298.15 143.25C298.08 141.09 297.7 138.94 297.3 136.81C297.86 137.28 298.39 137.79 298.9 138.32C299.92 139.39 300.72 140.57 301.51 141.69C302.01 142.41 302.81 143.66 303.86 143.05Z" fill="#ADBFFD"/>
<path d="M312.92 138.36C313.6 137.9 314.18 137.38 314.64 136.7C315.08 136.04 315.13 135.35 315.23 134.59C315.29 134.09 314.61 133.91 314.3 134.2C313.93 134.55 313.53 134.68 313.15 135.01C312.76 135.35 312.43 135.63 312.07 135.9C311.24 136.52 310.52 136.85 309.55 137.07C308.75 137.26 307.95 137.27 307.1 137.01C306.42 136.8 305.83 136.39 305.29 135.75C305.29 135.75 305.29 135.74 305.28 135.73C307.51 135 309.9 133.58 309.65 130.91C309.53 129.65 308.87 128.49 307.65 128.02C306.25 127.48 304.66 128.11 303.65 129.11C301.87 130.88 301.77 133.64 302.73 135.83C303.76 138.2 306.06 139.68 308.64 139.7C310.16 139.7 311.67 139.2 312.93 138.35L312.92 138.36ZM304.47 131.46C304.72 130.81 305.29 130.11 306.03 129.82C306.77 129.53 307.5 129.78 307.79 130.53C308.13 131.38 307.89 132.42 307.37 133.14C306.74 134.01 305.78 134.58 304.82 135.05C304.23 133.99 304.03 132.62 304.46 131.46H304.47Z" fill="#ADBFFD"/>
<path d="M316.25 125.79C316.77 125.56 317.29 125.33 317.81 125.11C318.33 124.88 318.84 124.65 319.33 124.35C319.6 124.19 319.87 124.05 320.08 123.81C320.26 123.61 320.4 123.38 320.56 123.16C320.79 122.84 320.48 122.45 320.14 122.43C319.84 122.41 319.52 122.37 319.22 122.43C318.9 122.49 318.58 122.64 318.28 122.76C317.64 123.01 317.06 123.34 316.45 123.66C315.52 124.16 313.87 124.67 313.8 125.93C313.76 126.61 314.21 127.14 314.58 127.67C314.85 128.06 315.13 128.46 315.4 128.85C315.53 129.18 315.67 129.5 315.82 129.81C316.36 130.93 317.24 131.95 318.16 132.78C318.85 133.4 320.09 132.59 319.51 131.74C318.86 130.79 318.21 129.84 317.56 128.89C317.23 128.42 316.91 127.94 316.58 127.47C316.43 127.25 316.28 127.03 316.13 126.82C316.02 126.57 315.91 126.31 315.79 126.06C315.95 125.99 316.11 125.89 316.26 125.82L316.25 125.79Z" fill="#ADBFFD"/>
<path d="M325.86 130.46C326.08 130.68 326.41 130.79 326.73 130.77C326.93 131.25 327.14 131.74 327.35 132.22C327.89 133.42 328.4 134.89 329.33 135.85C329.97 136.51 331.07 135.83 330.84 134.97C330.52 133.76 329.66 132.61 329.09 131.5C328.76 130.87 328.48 130.22 328.18 129.58C328.7 128.92 329.17 128.23 329.5 127.46C329.92 126.45 330.12 125.32 329.85 124.24C329.61 123.29 329.03 122.35 328.13 121.89C327.39 121.51 326.53 121.51 325.78 121.84C325.53 121.95 325.3 122.11 325.09 122.28C324.91 121.82 324.73 121.36 324.54 120.9C324.43 120.62 323.91 120.62 323.96 120.98C324.07 121.82 324.22 122.65 324.39 123.48C324.39 123.53 324.36 123.57 324.36 123.62C324.36 123.69 324.4 123.73 324.46 123.76C324.82 125.41 325.29 127.05 325.88 128.63C325.9 128.68 325.92 128.73 325.94 128.78C325.91 128.81 325.89 128.84 325.86 128.87C325.47 129.34 325.4 130 325.86 130.46ZM325.29 122.78C325.62 122.56 326.03 122.45 326.46 122.5C327.22 122.58 327.75 123.14 327.95 123.83C328.17 124.59 328.08 125.47 327.75 126.17C327.56 126.57 327.35 126.91 327.12 127.25C326.49 125.77 325.89 124.28 325.29 122.78Z" fill="#ADBFFD"/>
<path d="M333.01 117.03C332.79 116.53 332.02 116.89 332.15 117.39C332.93 120.35 333.19 123.34 333.29 126.38C333.34 127.79 335.52 127.8 335.5 126.38C335.41 125.07 335.2 123.78 334.9 122.51C335.56 122.19 336.22 121.87 336.88 121.56C336.95 121.53 337.01 121.49 337.08 121.46C338.1 122.33 339.26 123.09 340.49 123.57C340.99 123.76 341.6 123.4 341.78 122.94C341.97 122.46 341.83 121.83 341.33 121.57C340.91 121.35 340.67 121.28 340.24 121.07C339.9 120.91 339.56 120.74 339.22 120.55C339.12 120.49 339.02 120.43 338.92 120.37C339.09 120.22 339.25 120.06 339.4 119.89C339.66 119.59 339.4 119.21 339.04 119.26C338.58 119.32 338.14 119.45 337.72 119.64C337.56 119.54 337.39 119.45 337.23 119.35C335.95 118.5 334.8 117.48 333.79 116.32C333.49 115.98 332.95 116.42 333.18 116.79C333.99 118.15 334.98 119.41 336.1 120.53C335.61 120.82 335.12 121.11 334.64 121.39C334.22 119.89 333.67 118.43 333.04 117.01L333.01 117.03Z" fill="#ADBFFD"/>
<path d="M348.56 115.69C346.2 114.91 343.95 113.8 341.96 112.32C341.31 111.84 340.4 112.63 340.62 113.35C340.75 113.75 340.89 114.14 341.04 114.53C341.8 117 343.16 119.26 345.17 120.91C346.1 121.67 347.38 120.46 346.51 119.57C345.32 118.36 344.34 116.99 343.54 115.51C345.22 116.49 346.98 117.32 348.86 117.92C349.27 118.05 349.8 117.84 350 117.46C350.17 117.13 350.3 116.8 350.42 116.47C350.55 116.7 350.68 116.94 350.82 117.17C351.34 117.98 351.95 118.73 352.62 119.42C352.92 119.73 353.23 120.03 353.56 120.31C354.08 120.76 354.49 120.85 355.17 120.75C355.54 120.69 355.88 120.23 355.85 119.86C355.81 119.33 355.69 118.96 355.29 118.59C354.97 118.3 354.64 118.03 354.33 117.72C353.76 117.15 353.22 116.53 352.73 115.89C351.72 114.56 350.97 113.07 350.47 111.48C350.14 110.33 348.42 110.81 348.68 111.97C348.72 112.16 348.78 112.35 348.83 112.54C349.05 113.6 348.93 114.68 348.57 115.7L348.56 115.69Z" fill="#ADBFFD"/>
<path d="M214.49 205.35C211.97 203.52 209.99 200.57 209.66 197.43C209.55 196.37 208 196.32 207.98 197.43C207.95 198.83 207.8 200.22 207.51 201.59C207.33 202.46 207.14 204.08 206.24 204.56C205.77 204.81 205.39 204.3 205.13 203.97C204.76 203.5 204.42 202.98 204.12 202.46C203.42 201.29 203 199.99 202.85 198.63C202.81 198.31 202.37 198.3 202.35 198.63C202.23 200.26 202.49 201.89 203.12 203.39C203.66 204.68 204.82 206.51 206.47 206.11C207.93 205.76 208.55 204.12 208.9 202.83C208.98 202.53 209.05 202.22 209.12 201.91C210.01 204.04 211.4 205.92 213.31 207.39C213.82 207.78 214.64 207.47 214.93 206.96C215.28 206.36 215.02 205.71 214.5 205.34L214.49 205.35Z" fill="#ADBFFD"/>
<path d="M233.58 196.36C233.53 196.9 232.94 197.09 232.48 197.01C231.97 196.92 231.54 196.47 231.27 195.98C230.93 195.35 230.79 194.64 230.58 193.97C230.33 193.12 229.99 192.36 229.42 191.67C229.09 191.26 228.39 191.33 228.05 191.67C226.97 192.75 226.2 194.07 225.76 195.49C225.3 194.17 224.9 192.83 224.54 191.48C224.46 191.18 223.96 191.23 223.99 191.55C224.25 194.34 224.62 197.24 225.5 199.91C225.87 201.03 227.41 200.56 227.24 199.43C226.94 197.55 227.47 195.6 228.56 194.06C228.74 194.6 228.86 195.19 229.03 195.71C229.35 196.71 229.85 197.69 230.73 198.32C231.52 198.89 232.58 198.86 233.37 198.29C234 197.84 234.45 197.05 234.13 196.28C234.01 195.99 233.61 196.03 233.58 196.35V196.36Z" fill="#ADBFFD"/>
<path d="M241.21 188.57C239.2 187.12 235.96 187.41 234.37 189.37C233.46 190.49 233.2 192.29 234.03 193.54C234.3 193.94 234.61 194.27 234.99 194.53C235.04 194.76 235.11 194.98 235.2 195.2C235.65 196.29 236.49 197.05 237.63 197.38C239.68 197.96 242.26 197.08 243.18 195.07C244.26 192.75 243.22 190.01 241.21 188.57ZM241.86 193.97C241.65 194.7 241.19 195.19 240.56 195.54C239.93 195.89 239.2 196.03 238.43 195.94C238.41 195.94 238.37 195.94 238.26 195.91C238.15 195.89 238.04 195.86 237.93 195.82C237.7 195.75 237.65 195.73 237.42 195.6C237.12 195.43 236.9 195.27 236.68 195.03C236.9 195.03 237.11 195.03 237.32 194.97C237.64 194.9 237.66 194.36 237.32 194.31C236.96 194.26 236.6 194.14 236.36 193.86C236.23 193.7 236.15 193.57 236.05 193.38C236 193.29 235.94 193.2 235.89 193.1C235.87 193.07 235.86 193.04 235.85 193.01C235.75 192.37 235.73 191.71 235.72 191.08C235.72 191.04 235.69 191.01 235.67 190.98C235.69 190.93 235.72 190.88 235.73 190.86C236.13 190.14 236.76 189.63 237.63 189.43C238.42 189.26 239.29 189.38 239.99 189.78C241.42 190.6 242.31 192.42 241.86 193.97Z" fill="#ADBFFD"/>
<path d="M250.71 189.89C251.13 190.22 251.56 190.54 251.99 190.82C252.64 191.25 253.42 191.56 254.21 191.44C255.02 191.31 255.66 190.74 256.04 190.02C256.81 188.57 257.42 186.94 257.79 185.33C258.55 185.63 259.44 185.59 260.24 185.27C260.73 185.07 261.14 184.77 261.49 184.42C261.51 184.47 261.54 184.51 261.56 184.56C262.78 186.84 263.79 189.18 264.5 191.67C264.99 193.38 265.46 196.13 262.92 196.19C262.04 196.21 261.12 195.92 260.41 195.41C260.06 195.15 259.53 194.36 259.89 194.07C260.19 193.83 260.07 193.31 259.77 193.14C258.78 192.57 257.84 193.45 257.84 194.48C257.84 195.67 258.65 196.63 259.62 197.21C261.62 198.43 264.68 198.75 266.22 196.64C267.12 195.41 267.09 193.85 266.8 192.43C266.46 190.77 265.86 189.14 265.22 187.58C264.57 186 263.79 184.5 262.98 183C262.85 182.75 262.73 182.51 262.61 182.27C262.65 182.11 262.68 181.94 262.7 181.78C262.84 180.57 262.65 178.27 261.38 177.65C261.04 177.49 260.54 177.53 260.36 177.92C259.59 179.51 260.01 181.24 260.7 182.83C260.48 183.15 260.19 183.42 259.82 183.62C259.19 183.96 258.47 184.01 257.89 183.54C257.32 183.09 256.98 182.3 257.3 181.61C257.45 181.29 257.07 180.93 256.78 181.21C255.94 182.04 255.9 183.34 256.52 184.32C256.66 184.53 256.82 184.71 257 184.86C256.16 185.81 255.43 186.87 254.78 187.96C254.6 188.27 254.41 188.57 254.23 188.88C254.14 189.03 254.04 189.34 253.86 189.4C253.53 189.51 252.96 189.04 252.72 188.88C252.12 188.47 251.46 188.01 250.86 187.47C250.77 185.66 250.13 183.94 248.24 183.25C247.69 183.05 247.05 183.58 247.07 184.14C247.14 185.82 248 187.26 249.14 188.48C249.13 188.76 249.11 189.03 249.09 189.26C249 190.2 248.87 191.34 248.33 192.14C247.91 192.77 246.92 193.16 246.3 192.57C246.01 192.29 245.57 192.57 245.65 192.95C245.93 194.27 247.69 194.55 248.72 193.96C250.06 193.19 250.44 191.47 250.68 190.07C250.68 190.02 250.7 189.96 250.7 189.91L250.71 189.89Z" fill="#ADBFFD"/>
<path d="M266.07 181.67C266.5 183.35 268.04 184.83 269.84 184.67C271.76 184.5 272.92 182.55 273.67 180.99C273.87 180.58 274.03 180.16 274.17 179.75C274.87 180.55 275.92 180.96 277.05 180.72C278.66 180.38 279.75 179.32 280.41 177.96C281.54 179.53 283.29 180.65 285.26 180.1C286 179.89 285.97 178.85 285.26 178.62C283.52 178.07 281.82 176.87 281.18 175.23C281.31 174.18 281.28 173.13 281.12 172.2C281.02 171.61 280.08 171.5 279.82 172.03C279.25 173.19 279.12 174.48 279.38 175.71C278.91 177.01 278.06 178.18 276.9 178.58C274.89 179.27 274.96 176.06 275.04 174.88C275.13 174.02 273.73 173.84 273.53 174.68C273.33 175.54 273.18 176.4 273.23 177.26C272.76 179.22 271.7 181.25 270.35 182.36C269.26 183.25 268.09 182.17 267.87 181.02C267.59 179.58 268.46 178.11 269.11 176.89C269.42 176.32 269.04 175.47 268.33 175.52C267.3 175.59 266.3 175.52 265.29 175.3C264.92 175.22 264.55 175.41 264.44 175.78C264.23 176.5 264.38 177.08 264.84 177.65C265.24 178.14 265.88 177.52 265.65 177.03C265.65 177 265.65 176.96 265.65 176.93C266.05 177.07 266.45 177.16 266.87 177.23C266.18 178.62 265.67 180.14 266.06 181.68L266.07 181.67Z" fill="#ADBFFD"/>
<path d="M299.16 173C300.01 172.67 300.75 172.17 301.39 171.52C301.95 170.95 302.56 170.03 302.52 169.2C302.5 168.91 302.21 168.58 301.89 168.72C301.36 168.94 300.99 169.32 300.54 169.66C300.09 170 299.66 170.34 299.16 170.61C298.3 171.07 297.33 171.39 296.45 171.19C294.87 170.83 293.25 169.11 294.46 167.46C295.05 166.65 296.03 166.03 297.03 166.47C297.36 166.61 297.61 166.2 297.31 165.98C296.39 165.31 294.9 165.33 293.96 165.96C292.77 166.76 292.1 168.06 292.31 169.5C292.77 172.61 296.43 174.04 299.15 173H299.16Z" fill="#ADBFFD"/>
<path d="M318.29 165.62C319.6 165.26 320.6 164.34 321.21 163.19C321.8 163.68 322.48 164.05 323.24 164.21C324.18 164.42 325.63 164.43 326.02 163.36C326.13 163.06 325.99 162.74 325.8 162.52C325.35 162.01 324.44 162.12 323.86 161.95C323.44 161.83 322.85 161.53 322.49 161.24C322.28 161.07 322.09 160.88 321.93 160.68C322.06 159.44 321.86 158.09 320.7 157.49C320.17 157.22 319.52 157.45 319.35 158.04C319.22 158.48 319.12 158.85 319.16 159.32C319.19 159.78 319.27 160.24 319.43 160.67C319.54 160.97 319.68 161.26 319.84 161.54C319.48 162.41 318.79 163.2 317.86 163.47C317.09 163.69 316.1 163.57 315.65 162.94C315.18 162.28 315.07 161.4 315.49 160.68C315.76 160.22 315.23 159.74 314.78 159.97C313.42 160.7 313.15 162.54 313.81 163.85C313.92 164.07 314.06 164.27 314.2 164.45C313.32 165.52 312 166.34 310.65 166.59C309.47 166.81 308.13 166.45 307.14 165.73C307.17 165.63 307.2 165.53 307.24 165.43C307.57 164.54 308.08 163.71 308.63 162.95C308.9 162.57 309.23 162.22 309.53 161.86C309.87 161.47 310.15 161.09 310.44 160.67C310.72 160.26 310.26 159.84 309.86 159.91C307.51 160.31 306 162.8 305.28 164.89C305.06 165.53 304.91 166.2 304.82 166.87C304.24 165.36 303.87 163.77 303.72 162.15C303.69 161.83 303.23 161.82 303.22 162.15C303.08 165.51 303.86 168.83 305.43 171.8C305.91 172.7 307.33 172.08 307.06 171.11C306.66 169.68 306.58 168.24 306.86 166.82C307.87 167.95 309.36 168.58 310.91 168.43C312.84 168.24 314.41 166.87 314.8 165C315.77 165.73 317.1 165.93 318.3 165.6L318.29 165.62Z" fill="#ADBFFD"/>
<path d="M329.59 166.97C328.12 166.97 326.9 166.82 326 165.6C325.82 165.35 325.5 165.21 325.21 165.39C324.35 165.92 324.44 167.09 325.07 167.79C325.74 168.53 326.87 168.81 327.82 168.93C329.86 169.19 332.57 169.06 334.05 167.44C335.82 165.51 335.16 162.8 334.07 160.72C333.43 159.5 332.67 158.35 332.3 157C332.23 156.73 332.18 156.47 332.13 156.2C332.48 154.97 332.48 153.63 332.1 152.42C331.89 151.76 331.02 151.8 330.8 152.42C330.73 152.62 330.67 152.83 330.62 153.04C329.85 152.51 328.76 152.38 327.9 152.75C326.95 153.16 326.37 154 326.03 154.95C325.67 155.95 325.46 157.32 325.87 158.32C326.77 160.52 329.62 159.96 330.91 158.49C330.91 158.49 330.91 158.48 330.92 158.47C330.94 158.51 330.95 158.56 330.97 158.61C331.72 160.53 333.31 162.32 333.26 164.48C333.21 166.52 331.27 166.96 329.59 166.97ZM330.2 156.38C329.9 156.8 329.5 157.21 329.02 157.42C328.83 157.5 328.59 157.58 328.38 157.61C328.3 157.61 328.22 157.62 328.14 157.62C328.1 157.62 328.02 157.58 327.99 157.57C327.69 157.26 327.78 156.44 327.81 156.07C327.86 155.52 328.01 155 328.31 154.54C328.77 153.82 329.87 153.56 330.42 154.15C330.34 154.79 330.33 155.43 330.39 156.07C330.33 156.18 330.28 156.29 330.21 156.39L330.2 156.38Z" fill="#ADBFFD"/>
<path d="M346.95 153.58C347.05 153.31 346.79 152.96 346.5 152.99C345.8 153.06 345.15 153.37 344.47 153.54C343.78 153.71 343.26 153.78 342.53 153.77C341.19 153.75 339.93 153.35 338.93 152.44C338.97 152.37 339 152.3 339.04 152.23C339.53 151.41 340.12 150.7 340.8 150.03C341.5 149.33 342.39 148.72 342.92 147.87C343.15 147.51 342.85 147.06 342.45 147.05C341.31 147.02 340.24 147.82 339.42 148.54C338.59 149.28 337.88 150.26 337.32 151.22C336.86 152.02 336.49 152.87 336.22 153.75C336.22 153.73 336.21 153.71 336.2 153.69C335.94 152.41 335.94 151.12 336.11 149.83C336.17 149.35 335.4 149.27 335.28 149.72C334.59 152.48 334.64 155.62 335.83 158.24C336.23 159.12 337.65 158.66 337.61 157.76C337.56 156.28 337.84 154.82 338.41 153.47C339.45 154.61 340.95 155.35 342.48 155.51C344.01 155.67 346.36 155.22 346.96 153.59L346.95 153.58Z" fill="#ADBFFD"/>
<path d="M356.07 159.73C356.98 157.52 356.61 154.92 355.85 152.72C355.35 151.27 354.66 149.88 354.19 148.42C354.09 148.11 354 147.8 353.92 147.48C353.99 147.3 354.05 147.13 354.1 146.95C354.48 145.7 354.91 143.69 353.4 142.99C353.03 142.82 352.47 142.85 352.28 143.28C351.62 144.73 351.73 146.38 352.11 147.95C351.79 148.52 351.38 149.04 350.8 149.38C350.01 149.85 348.9 150 348.13 149.4C347.39 148.82 347.2 147.78 347.76 147.03C348.01 146.7 347.48 146.32 347.2 146.59C346.28 147.5 346.32 148.92 347.02 149.96C347.91 151.29 349.64 151.43 351.02 150.84C351.66 150.57 352.18 150.16 352.63 149.68C352.75 150.02 352.86 150.35 352.98 150.67C353.74 152.75 354.64 154.79 354.57 157.05C354.5 159.33 353.2 160.83 350.91 161.14C349.85 161.28 348.65 161.28 347.58 161.13C346.67 161 345.95 160.47 345.07 160.26C344.73 160.18 344.3 160.36 344.22 160.74C343.65 163.57 347.97 163.46 349.68 163.34C352.36 163.16 354.97 162.41 356.07 159.71V159.73Z" fill="#ADBFFD"/>
<path d="M271.78 231.9C269.4 232.28 267.03 232.93 264.67 233.69C261.24 226.83 258.79 219.83 256.83 212.51C257.35 210.06 257.04 207.92 255.06 206.78C254.43 206.42 253.43 206.87 253.5 207.67C253.71 209.89 254.04 212.1 254.45 214.3C253.08 218.43 250.41 223.45 249.92 224.36C249.63 224.89 250.42 225.35 250.73 224.83C251.64 223.32 253.59 220.39 255.08 217.29C256.44 223.26 258.48 229.08 260.99 234.65C258.36 235.35 255.91 236.32 253.46 237.64C251.41 238.74 252.81 242.06 255.04 241.4C261.07 239.61 267.65 238.31 273.32 235.58C275.54 234.51 273.85 231.56 271.77 231.9H271.78Z" fill="#ADBFFD"/>
<path d="M279.24 200.49C274.8 201.35 270.52 204.67 269.04 209.03C268.09 211.83 268.52 215.17 270.84 216.67C271.74 220.86 273.96 224.92 277.12 227.69C285.55 235.08 294.64 228.36 295.74 218.61C296.84 208.9 290.15 198.39 279.24 200.49ZM291.02 218.22C290.07 225.2 284.24 228.75 278.71 222.86C276.88 220.91 275.4 218.29 274.66 215.73C274.29 214.47 273.72 211.91 273.8 209.71C275.64 206.96 279.97 204.79 282.39 204.89C289.21 205.18 291.82 212.37 291.02 218.22Z" fill="#ADBFFD"/>
<path d="M301.83 194.29C301.56 192.92 300.41 191.77 298.96 191.83C298.39 191.85 297.81 192.06 297.34 192.39C297.44 192.16 297.55 191.93 297.66 191.71C297.72 191.58 297.53 191.46 297.46 191.59C297.21 192.03 296.96 192.49 296.73 192.98C296.45 193.34 296.26 193.77 296.26 194.24C296.03 195.09 295.98 195.96 296.33 196.81C296.62 197.51 297.15 198.12 297.86 198.41C298.64 198.73 299.52 198.58 300.23 198.16C301.56 197.37 302.14 195.78 301.85 194.29H301.83ZM300.27 197.33C299.74 197.79 299 198.08 298.3 197.91C297.68 197.75 297.22 197.27 296.94 196.71C296.66 196.15 296.58 195.59 296.6 195.03C296.7 195.02 296.79 194.94 296.79 194.81C296.77 193.74 297.72 192.91 298.69 192.66C299.82 192.37 300.79 193.1 301.12 194.17C301.46 195.28 301.17 196.57 300.28 197.34L300.27 197.33Z" fill="#ADBFFD"/>
<path d="M305.88 186.8C304.79 195.33 303.92 203.87 303.09 212.42C302.68 216.6 302.26 220.79 301.88 224.97C301.69 226.98 301.53 228.99 301.52 231.01C301.52 232.4 301.15 234.65 302.06 235.8C302.16 235.92 302.36 235.87 302.43 235.75C302.88 235.01 302.7 234.17 302.69 233.32C302.67 232.4 302.68 231.47 302.71 230.55C302.77 228.61 302.89 226.68 303.05 224.74C303.4 220.55 303.78 216.36 304.14 212.17C304.88 203.72 305.57 195.27 306.05 186.8C306.05 186.7 305.91 186.7 305.89 186.8H305.88Z" fill="#ADBFFD"/>
<path d="M310.72 220.32C310.01 220.18 309.3 220.42 308.78 220.93C308.41 221.29 308.15 221.84 308.23 222.34C307.68 222.99 307.3 223.74 307.48 224.66C307.59 225.22 307.96 225.72 308.49 225.94C309.14 226.22 309.92 226.03 310.54 225.76C311.66 225.28 312.6 224.23 312.62 222.96C312.64 221.84 311.89 220.55 310.72 220.33V220.32ZM310.5 224.86C310.09 225.09 309.57 225.28 309.09 225.24C308.69 225.21 308.45 224.94 308.3 224.59C308.05 223.99 308.21 223.42 308.52 222.9C308.68 223.01 308.94 222.99 308.98 222.76C309.05 222.39 309.2 222.02 309.44 221.76C309.69 221.5 310.07 221.29 310.4 221.28C311.19 221.25 311.74 222.04 311.78 222.79C311.83 223.68 311.24 224.43 310.49 224.85L310.5 224.86Z" fill="#ADBFFD"/>
<path d="M326.11 193.52C326.34 193.49 326.5 193.36 326.52 193.11C326.58 192.35 325.96 191.73 325.56 191.15C325.16 190.57 324.79 189.96 324.47 189.33C324.47 189.23 324.44 189.15 324.36 189.1C323.75 187.79 323.48 186.34 323.53 184.9C323.55 184.33 322.6 184.18 322.52 184.76C322.27 186.43 322.4 188.14 322.93 189.75C322.75 189.86 322.59 189.98 322.43 190.12C322 190.51 321.56 190.89 321.11 191.26C321.05 191.31 320.99 191.35 320.94 191.4C320.92 191.42 320.83 191.48 320.9 191.43C320.75 191.55 320.59 191.66 320.45 191.79C320.23 191.98 320.01 192.18 319.78 192.35C319.64 192.46 319.49 192.56 319.34 192.66C318.49 191.19 317.72 189.68 317.06 188.12C316.87 187.67 316.17 187.82 316.31 188.33C316.78 190.14 317.38 191.91 318.12 193.63C318.12 193.65 318.14 193.67 318.14 193.69C318.14 193.83 318.2 193.96 318.31 194.06C318.63 194.78 318.96 195.48 319.35 196.16C319.81 196.95 320.26 197.91 320.98 198.49C321.56 198.95 322.61 198.55 322.34 197.7C322.05 196.8 321.41 196.04 320.92 195.25C320.61 194.76 320.31 194.26 320.01 193.77C320.8 193.48 321.56 193.11 322.22 192.61C322.74 192.21 323.19 191.81 323.61 191.31C323.74 191.56 323.89 191.81 324.05 192.04C324.51 192.69 325.22 193.63 326.12 193.52H326.11Z" fill="#ADBFFD"/>
<path d="M329.64 191.54C330.57 191.63 331.41 191.14 331.99 190.44C332.54 189.78 332.91 188.97 333.14 188.14C333.32 188.37 333.51 188.6 333.72 188.8C334.29 189.37 335.03 189.96 335.81 190.19C336.62 190.43 337.43 190.42 338.24 190.21C338.71 190.09 338.69 189.41 338.24 189.28C337.63 189.11 337.06 188.82 336.52 188.52C335.96 188.21 335.41 187.94 334.94 187.49C333.99 186.6 333.48 185.43 333.27 184.16C333.27 184.16 333.27 184.16 333.26 184.16C333.07 183.46 332.01 183.54 331.93 184.34C331.93 184.39 331.93 184.45 331.93 184.5C331.55 183.98 330.93 183.6 330.32 183.45C328.77 183.06 327.49 184.03 326.92 185.44C326.34 186.89 326.64 188.81 327.49 190.1C327.99 190.87 328.72 191.46 329.66 191.54H329.64ZM329.43 184.75C330.32 184.31 331.73 184.61 331.76 185.79C331.76 185.95 331.87 186.02 331.98 186.02C331.92 186.4 331.83 186.78 331.74 187.11C331.54 187.8 331.23 188.54 330.73 189.07C330.4 189.42 329.91 189.79 329.44 189.48C328.93 189.14 328.69 188.4 328.55 187.85C328.3 186.83 328.35 185.29 329.43 184.76V184.75Z" fill="#ADBFFD"/>
<path d="M344.55 179.49C345.56 179.9 346.19 181.08 346.8 181.9C347.2 182.45 347.59 183.03 348.02 183.56C348.48 184.13 348.9 184.69 349.69 184.63C349.9 184.61 350.06 184.5 350.13 184.3C350.29 183.82 350.23 183.52 349.96 183.09C349.74 182.74 349.47 182.41 349.21 182.09C348.67 181.44 348.12 180.81 347.57 180.16C346.73 179.17 345.7 178.08 344.33 177.91C342.87 177.74 342.14 179 342.07 180.29C342.03 181.06 342.02 181.83 342.02 182.6C341.27 181.42 340.5 180.26 339.73 179.09C339.51 178.77 339.06 179.04 339.22 179.39C340.16 181.53 341.09 183.66 342.16 185.74C342.52 186.45 343.57 186.08 343.59 185.35C343.63 183.96 343.64 182.57 343.63 181.18C343.63 180.48 343.44 179.03 344.56 179.48L344.55 179.49Z" fill="#ADBFFD"/>
<path d="M351.34 179.87C351.34 179.87 351.37 179.85 351.39 179.84C351.93 180.47 352.64 180.94 353.46 181.18C355.21 181.7 357.73 181.18 358.32 179.21C358.42 178.89 358.08 178.5 357.74 178.63C357.2 178.84 356.69 179.02 356.13 179.2C355.98 179.25 355.84 179.29 355.69 179.32C355.62 179.34 355.54 179.35 355.47 179.36C355.46 179.36 355.45 179.36 355.44 179.36C355.43 179.36 355.42 179.36 355.41 179.36C355.11 179.38 354.81 179.41 354.51 179.4C354.44 179.4 354.36 179.39 354.29 179.38C354.29 179.38 354.29 179.38 354.28 179.38C354.27 179.38 354.26 179.38 354.24 179.37C354.09 179.34 353.95 179.31 353.81 179.26C353.75 179.24 353.7 179.22 353.64 179.2C353.62 179.2 353.62 179.2 353.61 179.19C353.61 179.19 353.6 179.19 353.58 179.18C353.43 179.11 353.29 179.03 353.15 178.94C353.16 178.94 353.07 178.88 353.03 178.85C353.37 178.63 353.72 178.4 354.05 178.16C354.81 177.59 355.56 176.85 355.75 175.88C355.92 175.01 355.71 174.02 355 173.44C354.17 172.76 353.02 172.87 352.16 173.43C350.72 174.36 350.17 176.11 350.44 177.75C350.51 178.17 350.64 178.56 350.81 178.93C350.78 178.96 350.75 178.99 350.72 179.02C350.29 179.45 350.84 180.14 351.36 179.85L351.34 179.87ZM352.15 176.51C352.15 176.51 352.15 176.49 352.15 176.48C352.15 176.48 352.15 176.47 352.15 176.45C352.16 176.38 352.18 176.31 352.19 176.25C352.22 176.13 352.26 176.01 352.29 175.89C352.29 175.87 352.32 175.81 352.33 175.79C352.35 175.76 352.36 175.72 352.38 175.69C352.45 175.55 352.53 175.42 352.63 175.3C352.64 175.28 352.66 175.27 352.66 175.26C352.72 175.2 352.77 175.14 352.83 175.08C352.86 175.05 352.89 175.03 352.92 175C352.93 175 353.02 174.93 353.04 174.91C353.27 174.76 353.55 174.66 353.72 174.69C353.77 174.69 353.78 174.7 353.8 174.71C353.82 174.72 353.89 174.77 353.91 174.79C353.96 174.86 353.94 174.82 353.91 174.79C353.95 174.85 353.99 174.91 354.02 174.97C354.02 174.99 354.02 174.98 354.03 174.99C354.03 175.01 354.03 175.01 354.04 175.05C354.06 175.11 354.07 175.16 354.08 175.22C354.05 175.07 354.08 175.34 354.08 175.35C354.08 175.37 354.08 175.47 354.08 175.5C353.99 176.15 353.37 176.67 352.86 177.1C352.65 177.28 352.43 177.46 352.21 177.63C352.18 177.51 352.13 177.38 352.11 177.26C352.11 177.21 352.09 177.04 352.09 177C352.09 176.84 352.09 176.69 352.1 176.54L352.15 176.51Z" fill="#ADBFFD"/>
<path d="M364.16 173.41C364.14 173.48 364.13 173.51 364.14 173.5C364.14 173.48 364.15 173.45 364.16 173.43C364.16 173.43 364.16 173.42 364.16 173.41Z" fill="#ADBFFD"/>
<path d="M363.24 174.72C363.24 174.72 363.22 174.73 363.22 174.74C363.22 174.74 363.23 174.73 363.24 174.72Z" fill="#ADBFFD"/>
<path d="M363.94 174.16C363.94 174.16 363.94 174.16 363.94 174.15C363.99 174.06 363.97 173.96 363.94 174.16Z" fill="#ADBFFD"/>
<path d="M363.82 174.36C363.82 174.36 363.81 174.38 363.8 174.39C363.76 174.43 363.71 174.48 363.67 174.52C363.64 174.54 363.62 174.56 363.59 174.57C363.59 174.57 363.57 174.57 363.56 174.58C363.51 174.6 363.32 174.66 363.24 174.71C363.3 174.68 363.39 174.67 363.26 174.71C363.24 174.71 363.23 174.72 363.21 174.73C363.21 174.73 363.19 174.74 363.19 174.75C363.19 174.75 363.2 174.74 363.21 174.73C363.1 174.77 363 174.82 362.91 174.89C362.69 175.06 362.51 175.35 362.53 175.65C362.57 176.52 363.53 176.8 364.24 176.56C365.14 176.26 365.8 175.39 366.04 174.5C366.28 173.59 366.02 172.54 365.43 171.81C364.84 171.08 363.91 170.63 362.99 170.49C362.45 170.41 361.9 170.39 361.35 170.46C360.85 170.52 360.28 170.58 359.85 170.86C359.69 170.97 359.51 171.14 359.35 171.33C359.29 171.22 359.24 171.1 359.17 170.99C358.98 170.68 358.56 170.84 358.53 171.16C358.37 172.9 359 174.64 359.68 176.22C360.38 177.85 361.33 179.32 362.42 180.72C362.74 181.13 363.45 181.06 363.79 180.72C364.19 180.31 364.12 179.76 363.79 179.35C362.8 178.1 361.96 176.72 361.23 175.31C360.66 174.21 360.23 173.04 359.68 171.94C359.76 171.86 359.85 171.8 359.91 171.76C360.26 171.54 360.64 171.51 361.04 171.51C361.9 171.51 362.75 171.65 363.43 172.09C363.48 172.12 363.53 172.16 363.58 172.19C363.59 172.2 363.59 172.19 363.6 172.19C363.6 172.19 363.61 172.2 363.63 172.22C363.7 172.28 363.77 172.35 363.84 172.42C363.86 172.44 363.86 172.44 363.87 172.45C363.9 172.49 363.93 172.53 363.96 172.57C363.99 172.62 364.02 172.66 364.05 172.71C364.07 172.75 364.16 172.85 364.08 172.76C364.01 172.68 364.08 172.76 364.1 172.82C364.11 172.86 364.12 172.89 364.13 172.93C364.14 172.97 364.22 173.24 364.17 173.09C364.17 173.06 364.16 173.05 364.15 173.04C364.15 173.06 364.16 173.09 364.16 173.11C364.16 173.16 364.16 173.21 364.16 173.25C364.16 173.29 364.16 173.33 364.16 173.37C364.16 173.37 364.16 173.37 364.16 173.38C364.16 173.36 364.16 173.36 364.17 173.34C364.17 173.36 364.16 173.38 364.15 173.41C364.15 173.45 364.14 173.47 364.13 173.48C364.1 173.6 364.08 173.73 364.04 173.85C364.02 173.92 364 174 363.97 174.07C363.96 174.1 363.94 174.14 363.93 174.18C363.93 174.16 363.93 174.16 363.93 174.15C363.89 174.22 363.86 174.29 363.81 174.36H363.82Z" fill="#ADBFFD"/>
<path d="M367 167.88C366.88 167.68 366.76 167.48 366.64 167.28C366.47 167 366.06 167.19 366.13 167.5C366.45 168.99 367.03 170.37 367.72 171.72C368.05 172.37 368.42 173 368.81 173.62C369.03 173.97 369.28 174.29 369.53 174.61C369.79 174.93 370.05 175.35 370.43 175.52C371.03 175.8 371.81 175.38 371.72 174.7C372.26 174.81 372.86 174.6 373.34 174.38C373.82 174.16 374.24 173.83 374.58 173.43C375.28 172.61 375.7 171.58 375.57 170.49C375.46 169.52 374.97 168.68 374.09 168.21C373.4 167.85 372.6 167.74 371.83 167.86C371.71 166.85 371.16 165.92 370.18 165.57C368.8 165.07 366.77 166.35 366.99 167.88H367ZM369.73 166.8C370.12 167.15 370.22 167.59 370.21 168.05C370.21 168.34 370.12 168.65 370 168.93C369.8 169.18 369.63 169.45 369.52 169.76C369.23 170.62 370.37 171.16 370.97 170.6C371.28 170.31 371.49 169.94 371.64 169.54C371.65 169.54 371.66 169.52 371.68 169.52C371.71 169.51 371.71 169.5 371.72 169.5C371.76 169.49 371.79 169.47 371.83 169.46C371.9 169.44 371.97 169.42 372.05 169.4C372.09 169.4 372.13 169.38 372.17 169.38C372.18 169.38 372.19 169.38 372.22 169.38C372.65 169.35 372.76 169.37 373.16 169.49C373.2 169.5 373.21 169.51 373.22 169.51C373.22 169.51 373.23 169.51 373.26 169.53C373.35 169.57 373.44 169.63 373.52 169.68C373.55 169.7 373.56 169.71 373.57 169.71C373.57 169.71 373.58 169.72 373.6 169.74C373.67 169.8 373.73 169.86 373.79 169.93C373.8 169.95 373.88 170.05 373.89 170.07C373.91 170.1 373.98 170.26 373.97 170.23C374.05 170.43 374.07 170.61 374.06 170.8C374.03 171.16 373.87 171.53 373.62 171.86C373.39 172.17 373.08 172.4 372.72 172.61C372.49 172.74 372.45 172.77 372.2 172.84C372.16 172.85 371.83 172.92 371.95 172.9C371.71 172.94 371.53 173 371.31 173.11C371.15 173.18 371.04 173.33 370.97 173.49C370.74 173.21 370.53 172.93 370.29 172.66C369.83 172.13 369.39 171.57 368.98 171C368.39 170.17 367.85 169.3 367.32 168.42C367.4 168.4 367.47 168.33 367.44 168.22C367.13 166.99 368.78 165.97 369.73 166.81V166.8Z" fill="#ADBFFD"/>
<path d="M374.46 164.38C375.16 164.91 376.01 165.35 376.88 165.51C377.81 165.69 378.76 165.69 379.68 165.48C379.97 165.41 380.25 165.3 380.52 165.16C380.75 166.81 380.82 168.47 380.69 170.16C380.64 170.79 380.55 172.09 381.43 172.2C382.38 172.32 382.55 170.91 382.56 170.27C382.61 168.48 382.4 166.67 381.96 164.93C381.88 164.59 381.77 164.26 381.67 163.93C381.67 163.92 381.68 163.91 381.69 163.89C381.73 163.76 381.67 163.62 381.56 163.55C381.09 162.08 380.45 160.69 379.62 159.37C379.46 159.11 378.99 159.27 379.11 159.59C379.6 160.93 379.98 162.3 380.26 163.69C379.93 163.76 379.62 163.86 379.29 163.95C378.62 164.13 377.9 164.16 377.21 164.05C375.7 163.81 374.38 163.11 373.36 161.95C373.17 161.74 372.81 161.96 372.89 162.22C373.18 163.13 373.68 163.8 374.44 164.37L374.46 164.38Z" fill="#ADBFFD"/>
<path d="M384.26 166.36C384.38 167.03 384.42 167.87 385.11 168.21C385.3 168.31 385.5 168.25 385.62 168.08C386.07 167.46 385.71 166.67 385.51 166.02L384.87 163.97C384.44 162.58 384 161.19 383.57 159.79C383.49 159.52 383.1 159.63 383.15 159.91C383.4 161.35 383.65 162.8 383.9 164.24C384.02 164.95 384.14 165.66 384.27 166.37L384.26 166.36Z" fill="#ADBFFD"/>
<path d="M393.2 154.38C392.18 153.67 390.84 153.7 389.85 154.44C389.29 154.85 388.9 155.44 388.61 156.06C388.3 156.71 388 157.41 387.87 158.12C387.7 159.01 387.7 159.87 387.85 160.71C387.84 161.02 387.84 161.32 387.85 161.63C387.69 161.7 387.51 161.73 387.36 161.83C387.1 162.01 386.84 162.19 386.58 162.37C386.32 162.56 386.09 162.82 385.85 163.05C385.62 163.28 385.38 163.5 385.15 163.73C384.88 163.99 385.23 164.44 385.55 164.25C385.82 164.09 386.09 163.92 386.36 163.76C386.65 163.59 386.97 163.43 387.23 163.22C387.47 163.03 387.7 162.83 387.93 162.63C387.94 162.62 387.95 162.6 387.97 162.59C388.18 163.59 388.68 164.47 389.7 165C391.5 165.95 393.42 165 394.24 163.26C395.08 161.48 395.27 159.22 394.97 157.29C394.79 156.12 394.18 155.1 393.2 154.41V154.38ZM393.2 159.86C393.17 160.51 393.08 161.15 392.9 161.77C392.61 162.79 391.99 163.87 390.85 163.6C390.19 163.45 389.61 162.86 389.28 162.27C389.49 161.36 389.74 160.47 389.98 159.57C390.21 158.72 390.44 157.82 390.85 157.03C391.02 156.7 391.15 156.48 391.41 156.23C391.58 156.06 391.69 156.02 391.93 156.05C392.58 156.14 392.93 156.83 393.07 157.44C393.26 158.22 393.22 159.07 393.18 159.86H393.2Z" fill="#ADBFFD"/>
<path d="M343.64 210.78C342.66 210.96 341.83 211.54 340.94 211.97C340.13 212.37 339.28 212.77 338.39 212.96C337.47 213.15 336.55 212.99 335.8 212.52C335.83 212.52 335.87 212.52 335.9 212.5C336.96 212.03 338 211.54 338.8 210.68C339.5 209.93 339.97 208.98 339.94 207.94C339.92 207 339.56 206.04 338.81 205.45C337.79 204.64 336.44 204.77 335.31 205.28C333.35 206.18 332.01 208.47 332.25 210.62C332.4 211.96 333.04 213.19 333.99 214.08C333.54 214.36 333.13 214.72 332.73 215.03C332.19 215.45 331.6 215.84 330.99 216.16C330.55 216.39 329.85 216.64 329.43 216.7C328.82 216.78 328.33 216.73 327.88 216.48C327.42 216.23 327.16 215.97 326.9 215.52C326.62 215.04 326.48 214.54 326.36 213.93C326.15 212.84 326.12 211.52 326.47 210.4C326.63 209.88 326.92 209.49 327.45 209.33C327.96 209.17 328.52 209.19 328.82 209.69C329.03 210.02 329.54 209.81 329.45 209.43C329.11 207.99 327.31 207.7 326.15 208.27C324.47 209.1 324.18 211.21 324.14 212.88C324.1 214.59 324.4 216.39 325.52 217.74C326.78 219.26 328.97 219.56 330.78 218.98C331.85 218.64 332.82 217.94 333.54 217.09C334.09 216.44 334.66 215.67 334.98 214.85C335.5 215.14 336.07 215.35 336.68 215.45C338.18 215.69 339.66 215.36 341.03 214.73C341.73 214.4 342.36 213.92 342.96 213.45C343.55 212.99 344.06 212.49 344.39 211.81C344.66 211.26 344.22 210.72 343.63 210.82L343.64 210.78ZM334.66 211.35C333.89 210.04 334.18 208.45 335.26 207.4C335.8 206.87 336.64 206.39 337.42 206.54C338.02 206.65 338.33 207.27 338.4 207.83C338.64 209.67 336.77 210.98 335.5 211.97C335.4 212.04 335.38 212.13 335.39 212.22C335.11 211.98 334.87 211.69 334.67 211.36L334.66 211.35Z" fill="#ADBFFD"/>
<path d="M362.16 201.85C361.88 201.94 361.6 202.04 361.33 202.15C361.12 202.15 360.91 202.18 360.69 202.26C360.4 202.36 360.11 202.45 359.82 202.54C359.55 202.63 359.27 202.68 358.99 202.74C358.86 202.77 358.73 202.8 358.6 202.82C358.54 202.83 358.48 202.84 358.42 202.85C358.4 202.85 358.38 202.85 358.35 202.85C358.07 202.86 357.79 202.85 357.51 202.85C357.47 202.85 357.42 202.83 357.38 202.83C357.21 202.8 357.05 202.75 356.89 202.7C356.85 202.69 356.81 202.67 356.78 202.66C356.66 202.6 356.55 202.54 356.43 202.48C356.33 202.42 356.23 202.35 356.13 202.29C356.08 202.26 356.04 202.22 355.99 202.19C355.98 202.18 355.97 202.17 355.95 202.15C355.79 202 355.65 201.85 355.51 201.69C355.49 201.66 355.39 201.54 355.36 201.49C355.29 201.37 355.22 201.25 355.15 201.13C355.13 201.08 355.1 201.03 355.08 200.99C355.08 200.99 355.08 200.99 355.08 200.98C355.05 200.87 355.01 200.76 354.98 200.65C354.96 200.58 354.94 200.41 354.93 200.4C354.93 200.3 354.91 200.19 354.92 200.09C354.92 200 354.99 199.66 354.92 199.91C354.95 199.8 354.96 199.7 355 199.59C355.03 199.47 355.12 199.33 355.02 199.52C355.09 199.4 355.15 199.28 355.22 199.16C355.23 199.13 355.23 199.13 355.24 199.12C355.24 199.12 355.25 199.12 355.27 199.09C355.35 199 355.42 198.9 355.5 198.81C355.57 198.73 355.64 198.66 355.71 198.59C355.76 198.54 355.81 198.5 355.86 198.45C356.32 198.14 356.56 197.99 357.09 197.9C357.19 197.88 357.5 197.87 357.69 197.87C357.92 197.87 358.14 197.93 358.35 198.02C358.69 198.17 359.2 197.83 358.93 197.44C358.14 196.34 356.89 196.04 355.6 196.26C354.16 196.51 352.99 197.54 352.49 198.9C351.96 200.34 352.32 202.07 353.18 203.31C353.58 203.89 354.06 204.37 354.6 204.75C354.59 204.75 354.58 204.76 354.57 204.77C353.61 205.68 352.68 206.48 351.55 207.08C350.57 207.59 349.42 207.75 348.41 207.47C348.27 207.43 348.14 207.39 348.01 207.34C347.98 207.33 347.97 207.32 347.94 207.32C347.88 207.29 347.82 207.26 347.76 207.23C347.61 207.16 347.47 207.08 347.34 206.99C347.28 206.95 347.22 206.91 347.17 206.87C347.14 206.85 347.14 206.85 347.13 206.85C347.13 206.85 347.13 206.85 347.11 206.84C346.58 206.41 346.34 206.12 346.06 205.5C346.06 205.47 346 205.36 346.06 205.5C346.04 205.44 346.02 205.37 346 205.31C345.95 205.16 345.91 205.01 345.89 204.85C345.91 204.99 345.88 204.68 345.88 204.64C345.88 204.46 345.88 204.28 345.9 204.11C345.94 203.79 346.11 203.22 346.49 202.93C347.3 202.3 348.69 202.54 349.12 203.5C349.22 203.72 349.61 203.62 349.59 203.37C349.44 202 348.01 201.05 346.68 201.14C344.77 201.28 343.59 202.96 343.49 204.77C343.25 208.85 348.16 211.48 351.71 210.05C353.75 209.23 355.39 207.57 355.59 205.31C356.17 205.57 356.79 205.74 357.47 205.81C358.47 205.92 359.48 205.76 360.4 205.36C361.18 205.02 362.23 204.42 362.47 203.54C362.67 203.26 362.83 202.97 362.95 202.62C363.1 202.19 362.63 201.73 362.2 201.87L362.16 201.85ZM347.92 207.31C347.87 207.29 347.81 207.27 347.92 207.31Z" fill="#ADBFFD"/>
<path d="M372.57 194.23C372.15 193.48 371.82 192.7 371.59 191.87C371.37 191.06 371.42 190.11 371.01 189.37C371.01 189.37 370.99 189.38 370.98 189.39C370.8 189.08 370.33 188.96 370.06 189.37C369.54 190.17 369.74 191.35 369.87 192.25C369.94 192.74 370.04 193.21 370.17 193.67C370.12 193.97 370.07 194.28 369.98 194.57C369.56 195.98 368.93 197.36 368.07 198.56C367.97 198.7 367.81 198.97 367.66 199.02C367.54 199.06 367.63 199.04 367.47 198.94C367.01 198.65 366.71 198.1 366.42 197.66C365.5 196.26 364.49 194.93 363.46 193.61C363.24 193.33 362.75 193.63 362.86 193.96C363.51 195.83 364.14 197.78 365.08 199.53C365.5 200.3 366.1 200.99 366.98 201.23C367.86 201.47 368.77 201.14 369.36 200.48C369.92 199.84 370.23 198.92 370.46 198.12C370.68 197.32 370.83 196.49 370.94 195.67C371.32 196.41 371.81 197.1 372.35 197.74C372.93 198.43 373.97 199.49 374.97 199.12C375.25 199.02 375.41 198.81 375.43 198.52C375.49 197.64 374.56 196.91 374.02 196.32C373.44 195.69 372.99 194.98 372.57 194.23Z" fill="#ADBFFD"/>
<path d="M386.83 181.8C385.08 181.79 383.75 182.84 383.15 184.44C382.6 185.89 382.58 187.48 382.88 188.99C382.66 189.14 382.46 189.34 382.25 189.5C381.79 189.85 381.33 190.22 380.85 190.54C379.9 191.17 378.86 191.64 377.77 191.94C377.71 191.96 377.67 191.98 377.62 192.01C377.6 191.97 377.59 191.93 377.57 191.89C376.8 190.14 376.04 188.39 375.27 186.64C375.06 186.17 374.28 186.51 374.44 186.99C375.06 188.8 375.67 190.62 376.29 192.43C376.9 194.23 377.44 196.12 378.24 197.85C378.65 198.73 380.09 198.11 379.8 197.19C379.5 196.25 379.05 195.34 378.66 194.43C378.43 193.88 378.19 193.33 377.95 192.78C377.97 192.78 377.98 192.78 378 192.78C379.22 192.55 380.39 192.12 381.47 191.51C382.01 191.21 382.52 190.87 382.98 190.45C383.05 190.38 383.13 190.3 383.21 190.23C383.24 190.38 383.26 190.53 383.3 190.67C383.64 191.79 384.38 192.96 385.46 193.49C388.1 194.79 390.85 192.7 391.89 190.31C392.96 187.85 392.48 184.95 390.39 183.18C389.39 182.33 388.16 181.82 386.84 181.81L386.83 181.8ZM386.28 184.69C386.33 184.6 386.31 184.64 386.28 184.69ZM390.34 188.9C389.94 190.42 388.42 192.51 386.59 192.02C386.37 191.96 386.19 191.86 386.01 191.76C385.91 191.45 385.79 191.13 385.74 190.94C385.77 191.05 385.78 190.6 385.78 190.54C385.78 190.36 385.73 190.25 385.7 190.09C385.64 189.81 385.59 189.57 385.57 189.32C385.54 188.85 385.48 188.38 385.49 187.9C385.49 187.66 385.51 187.42 385.53 187.18C385.54 187.05 385.56 186.92 385.57 186.78C385.57 186.7 385.58 186.66 385.58 186.63C385.58 186.6 385.59 186.58 385.6 186.53C385.65 186.27 385.7 186.02 385.77 185.76C385.79 185.69 385.89 185.38 385.89 185.36C385.98 185.15 386.11 184.95 386.22 184.74C386.24 184.71 386.25 184.69 386.26 184.67C386.27 184.67 386.56 184.4 386.43 184.5C387.03 184.07 387.91 184.22 388.57 184.55C390.2 185.35 390.78 187.17 390.33 188.87L390.34 188.9Z" fill="#ADBFFD"/>
</g>
<defs>
<clipPath id="clip0_182_168">
<rect width="411.02" height="275.34" fill="white"/>
</clipPath>
</defs>
</svg>
