<svg width="436" height="292" viewBox="0 0 436 292" fill="none" xmlns="http://www.w3.org/2000/svg">
<path d="M15.1344 4.24383C14.5512 9.49318 12.0639 8.05527 17.6946 6.80401C28.4415 4.41581 40.3624 5.19538 50.8347 8.79526C61.1717 12.3486 68.6608 28.161 81.0591 20.8139C92.8963 13.7993 100.028 15.0404 113.417 15.6935C124.582 16.2382 135.855 14.9823 146.984 16.3336C153.992 17.1845 160.757 20.4254 167.75 20.8139C178.84 21.43 188.333 15.7646 199.325 15.7646C216.994 15.7646 238.874 14.6633 255.791 19.676C263.447 21.9444 270.334 24.3589 278.406 22.8762C287.524 21.2016 295.872 16.8175 305.004 15.2668C312.785 13.9454 317.478 16.3778 324.774 17.7559C335.241 19.733 345.263 17.0159 354.927 13.2045C362.089 10.3801 381.079 -1.91417 385.792 8.79526C389.854 18.029 397.479 23.0043 402.362 31.268C408.617 41.8545 414.38 57.3685 414.38 69.7418C414.38 86.1461 404.715 102.842 412.176 118.883C418.684 132.876 435.093 144.543 433.439 161.908C432.625 170.456 426.197 176.72 424.052 184.737C422.913 188.993 423.483 193.881 423.483 198.249C423.483 214.641 424.763 230.969 424.763 247.39C424.763 252.475 425.189 257.989 422.843 262.68C421.323 265.72 418.214 265.389 415.518 266.947C407.902 271.347 403.333 274.402 403.002 283.019C402.688 291.184 325.856 279.463 314.676 279.463C291 279.463 268.243 285.561 244.839 288.139C230.066 289.767 213.021 291.667 198.33 288.21C185.042 285.084 172.578 276.899 160.211 271.356C152.83 268.047 144.481 263.553 136.103 264.173C128.096 264.766 121.125 271.864 114.413 275.623C98.1668 284.721 78.5331 290.104 59.9376 289.704C46.3923 289.413 24.3647 284.407 20.8237 268.938C15.9777 247.768 18.9657 223.665 22.5305 202.658C27.0087 176.268 33.4024 151.338 35.3314 124.572C35.9451 116.058 36.6842 106.147 34.7625 97.7615C32.9368 89.7949 27.7278 81.6796 24.3795 74.2221C21.6085 68.0502 -2.96692 9.69709 2.90246 7.08847C7.52935 5.03208 15.3707 18.9906 17.9791 12.2088C18.9689 9.63533 19.6565 6.93604 20.2548 4.24383C21.7354 -2.41881 18.38 7.71915 17.6946 9.36419" stroke="#ADBFFD" stroke-width="3" stroke-linecap="round"/>
<path d="M85.5393 84.8895C81.6048 82.9754 77.7125 81.1402 73.4496 80.0536C69.8762 79.1427 58.81 78.489 62.4977 78.489C67.4798 78.489 84.6231 80.6445 85.1838 72.5153C85.3396 70.2551 78.5403 50.4693 81.2013 50.4693C85.3237 50.4693 90.4958 56.1157 94.5711 53.3139C96.1967 52.1963 98.3624 47.734 100.331 47.6246C100.59 47.6103 101.815 52.236 102.323 52.8161C104.407 55.1982 107.146 55.2403 109.861 53.8829C112.142 52.7425 117.282 46.8884 115.479 48.6914C113.106 51.0642 122.255 46.6581 122.591 46.7001C125.343 47.0442 126.582 51.9368 127.782 53.8829C130.28 57.9337 133.975 60.1941 138.663 60.9945C145.191 62.1089 155.543 55.6279 151.82 47.7669C151.519 47.1322 146.754 57.1404 149.828 61.2789C154.468 67.5244 167.631 59.1098 172.728 63.6969C175.954 66.6007 168.308 68.7055 176.426 71.093C182.372 72.8419 174.441 77.9825 173.154 80.4803C171.246 84.1846 181.313 81.3981 182.826 81.9026C187.776 83.5527 175.418 96.3732 176.71 100.251C177.427 102.401 180.598 100.251 176.426 100.251" stroke="#ADBFFD" stroke-width="3" stroke-linecap="round"/>
<path d="M97.0601 82.3293C88.0543 82.3293 82.0458 95.859 78.641 102.669C76.0714 107.808 93.3487 103.599 94.7844 105.513C95.5905 106.588 82.7206 111.852 85.7526 113.62C89.3139 115.698 122.122 113.033 120.528 117.176C118.259 123.077 100.306 122.771 108.296 132.537C110.887 135.703 105.82 144.314 111.923 146.192C125.362 150.326 133.669 136.413 145.135 134.884C149.997 134.236 155.019 134.146 159.927 133.533C165.609 132.823 178.866 134.755 182.826 129.408C187.046 123.711 195.664 114.369 189.227 107.931" stroke="#ADBFFD" stroke-width="3" stroke-linecap="round"/>
<path d="M112.421 83.6092C112.421 90.102 111.74 94.1486 117.613 98.2592C124.257 102.91 137.214 100.401 129.204 91.0053C128 89.5928 111.283 78.7349 111.283 85.1027C111.283 95.1147 118.299 97.7985 126.502 98.9703" stroke="#ADBFFD" stroke-width="3" stroke-linecap="round"/>
<path d="M145.703 81.0493C145.556 82.2288 145.288 81.8971 144.423 82.3294" stroke="#ADBFFD" stroke-width="3" stroke-linecap="round"/>
<path d="M145.704 49.047C145.918 49.7443 147.299 57.1235 147.979 56.4431C150.428 53.9942 151.225 47.883 152.104 44.78C153.921 38.3667 155.38 39.2174 158.505 45.2067C161.434 50.8221 163.956 56.5839 167.465 61.8479" stroke="#ADBFFD" stroke-width="3" stroke-linecap="round"/>
<path d="M146.984 81.0491C147.618 75.9782 164.285 85.906 165.901 83.7515C167.335 81.8388 165.782 78.9265 164.905 83.7515C164.026 88.5866 164.522 94.3055 162.914 98.8993C159.803 107.788 154.751 104.703 147.126 100.891C143.61 99.1326 145.861 98.598 148.548 99.2549C152.957 100.333 156.648 103.514 159.785 106.651" stroke="#ADBFFD" stroke-width="3" stroke-linecap="round"/>
<path d="M141.863 132.253C150.029 133.274 144.749 159.477 154.166 155.792C166.018 151.155 172.7 141.332 180.266 132.253" stroke="#ADBFFD" stroke-width="3" stroke-linecap="round"/>
<path d="M97.06 125.852C93.8908 127.187 81.2969 129.433 78.4276 126.564C74.5695 122.705 76.3277 113.997 72.7383 109.211" stroke="#ADBFFD" stroke-width="3" stroke-linecap="round"/>
<path d="M62.4979 128.413C61.7876 135.515 61.2178 142.164 61.2178 149.463C61.2178 155.24 68.7857 154.014 73.1653 154.014C82.1483 154.014 86.6903 150.651 93.22 145.054" stroke="#ADBFFD" stroke-width="3" stroke-linecap="round"/>
<path d="M123.942 100.25C123.367 99.0365 121.37 91.9566 122.093 92.7832C123.931 94.8834 128.118 94.8409 126.645 94.49C125.52 94.2223 115.62 93.554 119.817 94.8456C122.973 95.8167 127.062 95.1301 130.343 95.1301" stroke="#ADBFFD" stroke-width="3" stroke-linecap="round"/>
<path d="M214.829 170.656C210.294 178.591 213.62 193.838 212.553 203.084C211.758 209.976 210.483 211.708 204.588 207.778" stroke="#ADBFFD" stroke-width="3" stroke-linecap="round"/>
<path d="M194.347 196.257C206.025 191.586 219.906 188.511 232.252 186.159C235.494 185.541 238.994 185.268 241.71 183.457" stroke="#ADBFFD" stroke-width="3" stroke-linecap="round"/>
<path d="M266.032 161.695C266.032 150.527 263.425 183.878 262.192 194.977" stroke="#ADBFFD" stroke-width="3" stroke-linecap="round"/>
<path d="M294.194 171.936C294.194 177.515 292.246 184.915 299.599 185.732C307.867 186.651 320.993 179.834 316.382 169.66C314.572 165.664 297.688 153.977 295.759 161.695C294.429 167.014 296.351 173.115 301.875 174.496" stroke="#ADBFFD" stroke-width="3" stroke-linecap="round"/>
<path d="M321.076 151.454C324.918 151.454 328.881 152.15 330.747 147.898C332.857 143.093 325.2 137.478 325.2 142.778C325.2 157.231 347.308 146.987 349.949 138.369C350.781 135.654 349.943 132.395 346.677 132.395C341.728 132.395 339.213 140.093 337.859 143.702C334.984 151.369 332.897 163.66 339.779 169.944C344.335 174.104 354.232 175.091 357.914 169.091C362.359 161.847 354.291 158.372 348.598 161.837C342.637 165.465 341.557 170.631 341.557 177.056" stroke="#ADBFFD" stroke-width="3" stroke-linecap="round"/>
<path d="M251.951 233.38C257.902 226.834 255.457 211.335 243.844 216.312C239.107 218.342 236.409 226.096 236.875 230.82C237.692 239.112 244.577 238.82 251.311 237.718C259.263 236.417 266.652 232.495 270.726 225.273C273.733 219.942 272.433 219.925 272.433 226.41C272.433 237.375 282.231 219.584 284.949 216.525C286.716 214.538 283.989 221.758 283.385 224.348C282.562 227.875 282.178 229.748 286.229 229.468C291.849 229.081 298.087 227.922 302.23 223.779C305.957 220.052 303.165 219.486 305.999 224.135C311.394 232.982 315.956 217.99 315.956 219.086C315.956 223.046 315.423 227.394 316.027 231.317C316.48 234.261 326.624 219.265 327.477 218.019" stroke="#ADBFFD" stroke-width="3" stroke-linecap="round"/>
<path d="M331.316 214.179C332.641 216.204 335.427 224.221 338.001 224.419C341.74 224.707 342.82 219.418 338.286 221.361C324.542 227.252 342.258 257.825 339.424 258.697C331.669 261.083 332.408 251.486 336.01 247.745C346.527 236.824 360.968 230.162 371.355 218.872C375.556 214.305 371.052 212.851 367.159 215.743C363.209 218.677 363.725 227.74 365.31 231.815C367.362 237.093 371.315 225.412 371.568 224.49C374.426 214.099 372.121 222.688 374.839 226.695C377.916 231.229 383.285 225.674 385.08 223.139C388.066 218.925 390.289 221.815 394.61 223.779C399.132 225.835 393.71 210.427 392.547 208.916C384.797 198.84 379.087 212.998 383.089 220.295C387.612 228.542 400.261 221.679 406.842 228.26" stroke="#ADBFFD" stroke-width="3" stroke-linecap="round"/>
<path d="M331.316 214.179C332.641 216.204 335.427 224.221 338.001 224.419C341.74 224.707 342.82 219.418 338.286 221.361C324.542 227.252 342.258 257.825 339.424 258.697C331.669 261.083 332.408 251.486 336.01 247.745C346.527 236.824 360.968 230.162 371.355 218.872C375.556 214.305 371.052 212.851 367.159 215.743C363.209 218.677 363.725 227.74 365.31 231.815C367.362 237.093 371.315 225.412 371.568 224.49C374.426 214.099 372.121 222.688 374.839 226.695C377.916 231.229 383.285 225.674 385.08 223.139C388.066 218.925 390.289 221.815 394.61 223.779C399.132 225.835 393.71 210.427 392.547 208.916C384.797 198.84 379.087 212.998 383.089 220.295C387.612 228.542 400.261 221.679 406.842 228.26" stroke="#ADBFFD" stroke-width="3" stroke-linecap="round"/>
</svg>
