<svg width="435" height="292" viewBox="0 0 435 292" fill="none" xmlns="http://www.w3.org/2000/svg">
<path d="M14.8161 3.88519C14.2328 9.13453 11.7456 7.69663 17.3763 6.44537C28.1231 4.05717 40.044 4.83674 50.5164 8.43662C60.8533 11.99 68.3424 27.8024 80.7407 20.4552C92.5779 13.4406 99.71 14.6818 113.099 15.3349C124.264 15.8795 135.537 14.6236 146.665 15.9749C153.673 16.8259 160.439 20.0668 167.431 20.4552C178.522 21.0714 188.015 15.406 199.007 15.406C216.675 15.406 238.555 14.3047 255.473 19.3174C263.129 21.5858 270.016 24.0003 278.088 22.5176C287.205 20.843 295.553 16.4589 304.685 14.9082C312.467 13.5868 317.16 16.0192 324.456 17.3972C334.923 19.3744 344.944 16.6572 354.609 12.8458C361.771 10.0215 380.761 -2.27281 385.473 8.43662C389.536 17.6704 397.16 22.6456 402.043 30.9093C408.299 41.4958 414.062 57.0099 414.062 69.3831C414.062 85.7874 404.397 102.484 411.857 118.524C418.366 132.517 434.775 144.184 433.121 161.55C432.307 170.098 425.879 176.361 423.734 184.378C422.595 188.634 423.165 193.523 423.165 197.89C423.165 214.282 424.445 230.61 424.445 247.031C424.445 252.116 424.87 257.63 422.525 262.321C421.005 265.361 417.895 265.031 415.2 266.588C407.584 270.989 403.015 274.044 402.683 282.66C402.369 290.826 325.538 279.105 314.357 279.105C290.682 279.105 267.924 285.202 244.521 287.781C229.747 289.408 212.702 291.309 198.011 287.852C184.724 284.725 172.259 276.541 159.893 270.997C152.512 267.689 144.162 263.194 135.785 263.815C127.778 264.408 120.806 271.505 114.094 275.264C97.8485 284.362 78.2148 289.745 59.6192 289.345C46.074 289.054 24.0464 284.048 20.5054 268.579C15.6593 247.41 18.6474 223.306 22.2121 202.299C26.6903 175.91 33.084 150.979 35.0131 124.214C35.6267 115.699 36.3659 105.789 34.4441 97.4029C32.6184 89.4363 27.4094 81.3209 24.0612 73.8634C21.2901 67.6915 -3.28528 9.33844 2.5841 6.72983C7.21099 4.67343 15.0523 18.632 17.6607 11.8502C18.6505 9.27668 19.3382 6.57739 19.9364 3.88519C21.417 -2.77745 18.0617 7.36051 17.3763 9.00555" stroke="#ADBFFD" stroke-width="3" stroke-linecap="round"/>
<path d="M85.221 84.5308C81.2865 82.6168 77.3941 80.7816 73.1312 79.6949C69.5578 78.7841 58.4917 78.1304 62.1794 78.1304C67.1614 78.1304 84.3048 80.2859 84.8654 72.1566C85.0213 69.8965 78.222 50.1106 80.8829 50.1106C85.0053 50.1106 90.1774 55.7571 94.2527 52.9553C95.8783 51.8377 98.0441 47.3754 100.013 47.266C100.271 47.2517 101.497 51.8774 102.004 52.4575C104.089 54.8396 106.828 54.8817 109.543 53.5242C111.823 52.3839 116.964 46.5297 115.161 48.3327C112.788 50.7055 121.936 46.2995 122.272 46.3415C125.025 46.6855 126.264 51.5782 127.464 53.5242C129.962 57.5751 133.657 59.8355 138.345 60.6358C144.872 61.7503 155.225 55.2693 151.501 47.4082C151.201 46.7736 146.436 56.7818 149.51 60.9203C154.149 67.1658 167.313 58.7511 172.409 63.3382C175.636 66.242 167.99 68.3469 176.107 70.7343C182.054 72.4832 174.123 77.6239 172.836 80.1216C170.928 83.8259 180.994 81.0395 182.508 81.544C187.458 83.194 175.099 96.0146 176.392 99.8919C177.109 102.042 180.28 99.8919 176.107 99.8919" stroke="#ADBFFD" stroke-width="3" stroke-linecap="round"/>
<path d="M96.7417 81.9707C87.736 81.9707 81.7275 95.5003 78.3227 102.31C75.753 107.449 93.0304 103.24 94.466 105.155C95.2721 106.229 82.4023 111.493 85.4343 113.262C88.9955 115.339 121.804 112.675 120.21 116.818C117.94 122.719 99.9875 122.412 107.978 132.179C110.568 135.344 105.502 143.955 111.605 145.833C125.043 149.968 133.351 136.054 144.816 134.526C149.679 133.877 154.7 133.788 159.608 133.174C165.291 132.464 178.547 134.396 182.508 129.05C186.728 123.353 195.346 114.01 188.908 107.573" stroke="#ADBFFD" stroke-width="3" stroke-linecap="round"/>
<path d="M112.103 83.2507C112.103 89.7435 111.422 93.7901 117.294 97.9006C123.939 102.552 136.895 100.042 128.886 90.6468C127.682 89.2343 110.965 78.3764 110.965 84.7442C110.965 94.7561 117.981 97.44 126.184 98.6118" stroke="#ADBFFD" stroke-width="3" stroke-linecap="round"/>
<path d="M145.385 80.6906C145.238 81.87 144.97 81.5383 144.105 81.9706" stroke="#ADBFFD" stroke-width="3" stroke-linecap="round"/>
<path d="M145.385 48.6884C145.6 49.3856 146.981 56.7649 147.661 56.0844C150.11 53.6355 150.907 47.5244 151.786 44.4214C153.603 38.008 155.061 38.8588 158.186 44.8481C161.116 50.4635 163.637 56.2252 167.147 61.4893" stroke="#ADBFFD" stroke-width="3" stroke-linecap="round"/>
<path d="M146.665 80.6905C147.299 75.6196 163.967 85.5473 165.582 83.3929C167.017 81.4802 165.464 78.5679 164.587 83.3929C163.708 88.2279 164.203 93.9468 162.595 98.5406C159.484 107.43 154.433 104.344 146.808 100.532C143.292 98.774 145.543 98.2393 148.23 98.8962C152.639 99.9739 156.33 103.156 159.466 106.292" stroke="#ADBFFD" stroke-width="3" stroke-linecap="round"/>
<path d="M141.545 131.894C149.711 132.915 144.431 159.119 153.848 155.434C165.7 150.796 172.382 140.973 179.948 131.894" stroke="#ADBFFD" stroke-width="3" stroke-linecap="round"/>
<path d="M96.7416 125.494C93.5725 126.828 80.9786 129.074 78.1092 126.205C74.2511 122.347 76.0094 113.638 72.4199 108.853" stroke="#ADBFFD" stroke-width="3" stroke-linecap="round"/>
<path d="M62.1795 128.054C61.4692 135.157 60.8994 141.806 60.8994 149.104C60.8994 154.881 68.4674 153.656 72.8469 153.656C81.8299 153.656 86.372 150.292 92.9017 144.695" stroke="#ADBFFD" stroke-width="3" stroke-linecap="round"/>
<path d="M123.624 99.8919C123.049 98.678 121.051 91.5981 121.775 92.4247C123.612 94.5249 127.8 94.4824 126.326 94.1315C125.202 93.8638 115.301 93.1955 119.499 94.4871C122.655 95.4582 126.743 94.7716 130.024 94.7716" stroke="#ADBFFD" stroke-width="3" stroke-linecap="round"/>
<path d="M214.51 170.297C209.976 178.232 213.301 193.48 212.235 202.726C211.439 209.617 210.165 211.35 204.27 207.419" stroke="#ADBFFD" stroke-width="3" stroke-linecap="round"/>
<path d="M194.029 195.899C205.706 191.228 219.588 188.152 231.934 185.8C235.176 185.183 238.675 184.909 241.392 183.098" stroke="#ADBFFD" stroke-width="3" stroke-linecap="round"/>
<path d="M265.714 161.336C265.714 150.169 263.107 183.519 261.874 194.619" stroke="#ADBFFD" stroke-width="3" stroke-linecap="round"/>
<path d="M293.876 171.577C293.876 177.156 291.927 184.557 299.281 185.374C307.548 186.292 320.674 179.475 316.064 169.301C314.253 165.305 297.37 153.619 295.44 161.336C294.111 166.655 296.033 172.756 301.556 174.137" stroke="#ADBFFD" stroke-width="3" stroke-linecap="round"/>
<path d="M320.757 151.095C324.599 151.095 328.563 151.791 330.429 147.54C332.539 142.734 324.882 137.119 324.882 142.419C324.882 156.872 346.99 146.628 349.63 138.01C350.463 135.295 349.624 132.036 346.359 132.036C341.409 132.036 338.894 139.735 337.541 143.344C334.666 151.01 332.578 163.302 339.461 169.586C344.017 173.745 353.914 174.732 357.595 168.732C362.041 161.488 353.972 158.013 348.279 161.478C342.319 165.107 341.239 170.272 341.239 176.697" stroke="#ADBFFD" stroke-width="3" stroke-linecap="round"/>
<path d="M251.633 233.021C257.583 226.476 255.138 210.977 243.526 215.953C238.789 217.983 236.091 225.737 236.556 230.461C237.374 238.753 244.259 238.461 250.993 237.359C258.945 236.058 266.333 232.136 270.408 224.914C273.415 219.583 272.114 219.566 272.114 226.052C272.114 237.017 281.912 219.225 284.631 216.167C286.397 214.179 283.67 221.4 283.066 223.989C282.243 227.516 281.86 229.389 285.911 229.11C291.53 228.722 297.769 227.564 301.912 223.421C305.639 219.693 302.847 219.127 305.681 223.776C311.076 232.624 315.637 217.632 315.637 218.727C315.637 222.687 315.105 227.036 315.709 230.959C316.161 233.902 326.305 218.907 327.158 217.66" stroke="#ADBFFD" stroke-width="3" stroke-linecap="round"/>
<path d="M330.998 213.82C332.322 215.846 335.108 223.863 337.683 224.061C341.421 224.348 342.502 219.059 337.967 221.003C324.223 226.893 341.94 257.466 339.105 258.339C331.351 260.725 332.09 251.127 335.692 247.387C346.208 236.466 360.65 229.803 371.036 218.514C375.238 213.947 370.734 212.492 366.841 215.385C362.891 218.319 363.407 227.381 364.992 231.457C367.044 236.734 370.996 225.054 371.25 224.132C374.108 213.74 371.802 222.33 374.521 226.336C377.598 230.87 382.966 225.315 384.762 222.781C387.747 218.566 389.971 221.457 394.291 223.421C398.814 225.476 393.391 210.069 392.229 208.557C384.479 198.482 378.769 212.639 382.771 219.936C387.294 228.184 399.943 221.32 406.523 227.901" stroke="#ADBFFD" stroke-width="3" stroke-linecap="round"/>
<path d="M330.998 213.82C332.322 215.846 335.108 223.863 337.683 224.061C341.421 224.348 342.502 219.059 337.967 221.003C324.223 226.893 341.94 257.466 339.105 258.339C331.351 260.725 332.09 251.127 335.692 247.387C346.208 236.466 360.65 229.803 371.036 218.514C375.238 213.947 370.734 212.492 366.841 215.385C362.891 218.319 363.407 227.381 364.992 231.457C367.044 236.734 370.996 225.054 371.25 224.132C374.108 213.74 371.802 222.33 374.521 226.336C377.598 230.87 382.966 225.315 384.762 222.781C387.747 218.566 389.971 221.457 394.291 223.421C398.814 225.476 393.391 210.069 392.229 208.557C384.479 198.482 378.769 212.639 382.771 219.936C387.294 228.184 399.943 221.32 406.523 227.901" stroke="#ADBFFD" stroke-width="3" stroke-linecap="round"/>
</svg>
