<svg width="24" height="26" viewBox="0 0 24 26" xmlns="http://www.w3.org/2000/svg">
<path d="M2.14002 4.67003C1.87002 4.40003 1.38002 4.40003 1.11002 4.67003C0.970023 4.81003 0.900024 4.99003 0.900024 5.19003V13.77H2.36002V5.19003C2.36002 4.99003 2.28002 4.81003 2.15002 4.67003H2.14002Z" fill="#ADBFFD"/>
<path d="M9.46997 19.6501H15.36C16.74 19.6501 18.03 20.1901 19 21.1601C19.97 22.1301 20.51 23.4301 20.51 24.8001V25.9701H21.97V24.8001C21.97 23.0301 21.28 21.3701 20.03 20.1201C18.78 18.8701 17.12 18.1801 15.35 18.1801H9.45997C7.68997 18.1801 6.02997 18.8701 4.77997 20.1201C3.52997 21.3701 2.83997 23.0301 2.83997 24.8001V25.9701H4.29997V24.8001C4.29997 23.4201 4.83997 22.1301 5.80997 21.1601C6.77997 20.1901 8.07997 19.6501 9.44997 19.6501H9.46997Z" fill="#ADBFFD"/>
<path d="M7.73002 13.79C8.98002 15.04 10.64 15.73 12.41 15.73C14.18 15.73 15.84 15.04 17.09 13.79C18.34 12.54 19.03 10.88 19.03 9.11003V1.99003H23.93V0.530029H0.890015V1.99003H5.79002V9.11003C5.79002 10.88 6.48002 12.54 7.73002 13.79ZM7.25002 1.99003H17.56V5.43003H7.25002V1.99003ZM7.25002 6.90003H17.56V9.11003C17.56 10.47 17.01 11.79 16.05 12.75C15.09 13.71 13.78 14.26 12.4 14.26C11.02 14.26 9.73001 13.72 8.75002 12.75C7.78001 11.78 7.24001 10.48 7.24001 9.11003V6.90003H7.25002Z" fill="#ADBFFD"/>
</svg>
