<svg width="33" height="26" viewBox="0 0 33 26" xmlns="http://www.w3.org/2000/svg">
<path d="M31.99 4.17H24.16L22.03 0.989995C21.96 0.879995 21.86 0.779995 21.74 0.719995C21.62 0.659995 21.49 0.619995 21.36 0.619995H11.91C11.78 0.619995 11.65 0.649995 11.53 0.719995C11.41 0.789995 11.31 0.879995 11.24 0.989995L9.10997 4.17H1.27997C1.06997 4.17 0.859969 4.25999 0.709969 4.41C0.559969 4.56 0.469971 4.77 0.469971 4.98V25.07C0.469971 25.28 0.559969 25.49 0.709969 25.64C0.859969 25.79 1.06997 25.88 1.27997 25.88H32.01C32.22 25.88 32.43 25.79 32.58 25.64C32.73 25.49 32.82 25.28 32.82 25.07V4.98C32.82 4.77 32.73 4.56 32.58 4.41C32.43 4.25999 32.22 4.17 32.01 4.17H31.99ZM31.18 24.26H2.06997V5.79H9.53997C9.66997 5.79 9.79997 5.76 9.91997 5.69C10.04 5.62 10.14 5.54 10.21 5.42L12.34 2.24H20.92L23.05 5.42C23.12 5.53 23.22 5.63 23.34 5.69C23.46 5.75 23.59 5.79 23.72 5.79H31.18V24.27V24.26Z" fill="#ADBFFD"/>
<path d="M11.87 9.68997C10.93 10.63 10.29 11.82 10.03 13.13C9.77003 14.44 9.90003 15.78 10.41 17.01C10.92 18.24 11.78 19.28 12.88 20.02C13.99 20.76 15.28 21.15 16.61 21.15C18.4 21.15 20.09 20.45 21.36 19.18C22.63 17.91 23.33 16.22 23.33 14.43C23.33 13.1 22.94 11.81 22.2 10.7C21.46 9.58997 20.42 8.73997 19.19 8.22997C18.37 7.88997 17.5 7.71997 16.62 7.71997C16.18 7.71997 15.74 7.75997 15.31 7.84997C14 8.10997 12.81 8.74997 11.87 9.68997ZM20.23 10.83C21.19 11.79 21.72 13.08 21.72 14.44C21.72 15.45 21.42 16.43 20.86 17.27C20.3 18.11 19.51 18.76 18.57 19.15C17.95 19.41 17.29 19.54 16.62 19.54C16.29 19.54 15.95 19.51 15.62 19.44C14.63 19.24 13.72 18.76 13.01 18.04C12.3 17.32 11.81 16.42 11.61 15.43C11.41 14.44 11.51 13.42 11.9 12.48C12.29 11.54 12.94 10.75 13.78 10.19C14.62 9.62997 15.6 9.32997 16.61 9.32997C17.97 9.32997 19.25 9.85997 20.22 10.82L20.23 10.83Z" fill="#ADBFFD"/>
</svg>
