<svg width="29" height="27" viewBox="0 0 29 27" xmlns="http://www.w3.org/2000/svg">
<path d="M27.14 14.25V10.56C27.14 9.44004 26.23 8.53004 25.11 8.53004H25.08V7.54004C25.08 6.42004 24.17 5.51004 23.05 5.51004H21.33L18.86 1.04004C18.59 0.56004 18.15 0.21004 17.61 0.0600401C17.08 -0.0899599 16.5199 -0.00995985 16.0399 0.28004L7.29996 5.51004H2.34996C1.16996 5.51004 0.209951 6.47004 0.199951 7.66004V7.77004V24.43C0.199951 25.57 1.12996 26.5 2.26996 26.5H25.06C26.2 26.5 27.13 25.57 27.13 24.43V19.66C27.7 19.62 28.16 19.14 28.16 18.56V15.34C28.16 14.76 27.71 14.28 27.13 14.24L27.14 14.25ZM23.11 6.80004C23.5 6.82004 23.81 7.15004 23.81 7.55004V8.54004H23L22.0399 6.80004H23.1H23.11ZM21.55 8.54004H11.66L19.09 4.09004L21.55 8.54004ZM16.71 1.38004C16.89 1.27004 17.0899 1.25004 17.2899 1.30004C17.4899 1.35004 17.65 1.48004 17.75 1.66004L17.95 2.02004L18.47 2.97004L9.17995 8.54004H7.08995H4.74995L16.7 1.39004L16.71 1.38004ZM2.35995 6.80004H5.17995L2.30995 8.52004C1.84995 8.46004 1.50996 8.11004 1.48996 7.67004C1.48996 7.19004 1.87995 6.80004 2.35995 6.80004ZM25.8699 24.44C25.8699 24.88 25.51 25.23 25.08 25.23H2.28995C1.84995 25.23 1.49995 24.88 1.49995 24.44V9.60004C1.77995 9.73004 2.08996 9.80004 2.40996 9.81004H25.1199C25.5299 9.81004 25.8699 10.15 25.8699 10.56V14.25H22.8C21.31 14.25 20.09 15.46 20.09 16.96C20.09 18.46 21.3 19.67 22.8 19.67H25.8699V24.44ZM22.8 18.39C22.01 18.39 21.3699 17.75 21.3699 16.96C21.3699 16.17 22.01 15.53 22.8 15.53H26.8999L26.94 18.39H22.7899H22.8Z" fill="#ADBFFD"/>
</svg>
