<svg width="30" height="27" viewBox="0 0 30 27" xmlns="http://www.w3.org/2000/svg">
<path d="M24.03 24.9001L29.41 1.26005C29.44 1.12005 29.44 0.970053 29.39 0.820053C29.35 0.680053 29.26 0.560053 29.15 0.460053C29.04 0.360053 28.9 0.300053 28.76 0.270053C28.61 0.250053 28.47 0.270053 28.33 0.310053L1.45998 10.9301C1.15998 11.0501 0.899973 11.2701 0.729973 11.5401C0.559973 11.8201 0.479972 12.1501 0.509972 12.4701C0.539972 12.7901 0.669977 13.1101 0.889977 13.3501C1.09998 13.5901 1.39998 13.7601 1.70998 13.8201L8.98998 15.2601V23.4201C8.98998 23.7701 9.08997 24.1101 9.28997 24.4001C9.47997 24.6901 9.75998 24.9101 10.08 25.0401C10.4 25.1701 10.75 25.2001 11.09 25.1301C11.43 25.0601 11.73 24.8801 11.97 24.6301L15.59 20.8401L21.19 25.8001C21.64 26.2001 22.3 26.3401 22.87 26.1501C23.16 26.0601 23.41 25.8901 23.62 25.6701C23.83 25.4501 23.96 25.1701 24.03 24.8801V24.9001ZM9.51998 13.9801H9.46998L1.91998 12.4801L1.87998 12.4101C1.87998 12.4101 1.86998 12.3301 1.87998 12.2801V12.2401L1.97997 12.1901L24.07 3.46005L9.52998 13.9801H9.51998ZM14.5 20.0501L11.02 23.7001C10.97 23.7601 10.9 23.8001 10.82 23.8101C10.79 23.8101 10.77 23.8101 10.74 23.8101C10.69 23.8101 10.64 23.8101 10.6 23.7801C10.53 23.7501 10.46 23.7001 10.42 23.6401C10.38 23.5801 10.35 23.5001 10.35 23.4201V16.1901L14.59 19.9401L14.5 20.0301V20.0501ZM22.72 24.5901C22.71 24.6601 22.67 24.7201 22.63 24.7701C22.59 24.8201 22.53 24.8601 22.46 24.8801C22.42 24.8901 22.38 24.9001 22.34 24.9001C22.31 24.9001 22.29 24.9001 22.26 24.9001C22.19 24.8901 22.13 24.8501 22.08 24.8101L10.76 14.7801L27.77 2.47005L27.7 2.79005L22.73 24.6101L22.72 24.5901Z" fill="#ADBFFD"/>
</svg>
